<svg width="205" height="13" viewBox="0 0 205 13" fill="none" xmlns="http://www.w3.org/2000/svg">
<path d="M6.18262 6.2041H7.10938C7.10938 6.86849 6.91895 7.36784 6.53809 7.70215C6.16146 8.03223 5.64941 8.19727 5.00195 8.19727C4.55339 8.19727 4.16406 8.09359 3.83398 7.88623C3.50814 7.67887 3.25423 7.39111 3.07227 7.02295C2.89453 6.65479 2.80566 6.22738 2.80566 5.74072V5.01074C2.80566 4.52409 2.89453 4.09668 3.07227 3.72852C3.25423 3.36035 3.50814 3.07259 3.83398 2.86523C4.16406 2.65788 4.55339 2.5542 5.00195 2.5542C5.64941 2.5542 6.16357 2.71924 6.54443 3.04932C6.92529 3.37939 7.11572 3.87663 7.11572 4.54102H6.18896C6.18896 4.12207 6.0874 3.82161 5.88428 3.63965C5.68538 3.45768 5.39128 3.3667 5.00195 3.3667C4.72266 3.3667 4.48779 3.43652 4.29736 3.57617C4.10693 3.71582 3.96305 3.91048 3.86572 4.16016C3.76839 4.4056 3.71973 4.68701 3.71973 5.00439V5.74072C3.71973 6.06234 3.76839 6.34798 3.86572 6.59766C3.96305 6.8431 4.10693 7.03564 4.29736 7.17529C4.48779 7.31494 4.72266 7.38477 5.00195 7.38477C5.39128 7.38477 5.68538 7.29378 5.88428 7.11182C6.08317 6.92985 6.18262 6.62728 6.18262 6.2041ZM1.31396 5.37256C1.31396 5.93538 1.4113 6.46012 1.60596 6.94678C1.80062 7.43343 2.07145 7.85872 2.41846 8.22266C2.76546 8.58659 3.16748 8.87012 3.62451 9.07324C4.08154 9.27637 4.57031 9.37793 5.09082 9.37793C5.61133 9.37793 6.09798 9.27637 6.55078 9.07324C7.00781 8.87012 7.40771 8.58659 7.75049 8.22266C8.09749 7.85872 8.36833 7.43343 8.56299 6.94678C8.75765 6.46012 8.85498 5.93538 8.85498 5.37256C8.85498 4.8055 8.75765 4.28076 8.56299 3.79834C8.36833 3.31592 8.09749 2.89486 7.75049 2.53516C7.40771 2.17122 7.00781 1.88981 6.55078 1.69092C6.09798 1.48779 5.61133 1.38623 5.09082 1.38623C4.57031 1.38623 4.08154 1.48779 3.62451 1.69092C3.16748 1.88981 2.76546 2.17122 2.41846 2.53516C2.07145 2.89486 1.80062 3.31592 1.60596 3.79834C1.4113 4.28076 1.31396 4.8055 1.31396 5.37256ZM0.583984 5.37256C0.583984 4.69971 0.700358 4.07552 0.933105 3.5C1.16585 2.92448 1.48958 2.42301 1.9043 1.99561C2.31901 1.56396 2.7972 1.22965 3.33887 0.992676C3.88477 0.751465 4.46875 0.630859 5.09082 0.630859C5.71289 0.630859 6.29476 0.751465 6.83643 0.992676C7.38232 1.22965 7.86051 1.56396 8.271 1.99561C8.68571 2.42301 9.00944 2.92448 9.24219 3.5C9.47493 4.07552 9.59131 4.69971 9.59131 5.37256C9.59131 6.04541 9.47493 6.6696 9.24219 7.24512C9.00944 7.82064 8.68571 8.32633 8.271 8.76221C7.86051 9.19385 7.38232 9.53027 6.83643 9.77148C6.29476 10.0127 5.71289 10.1333 5.09082 10.1333C4.46875 10.1333 3.88477 10.0127 3.33887 9.77148C2.7972 9.53027 2.31901 9.19385 1.9043 8.76221C1.48958 8.32633 1.16585 7.82064 0.933105 7.24512C0.700358 6.6696 0.583984 6.04541 0.583984 5.37256ZM20.2681 9.03516V10H14.2188V9.15576L17.2466 5.78516C17.619 5.37044 17.9067 5.01921 18.1099 4.73145C18.3172 4.43945 18.4611 4.1792 18.5415 3.95068C18.6261 3.71794 18.6685 3.48096 18.6685 3.23975C18.6685 2.93506 18.605 2.65999 18.478 2.41455C18.3553 2.16488 18.1733 1.96598 17.9321 1.81787C17.6909 1.66976 17.3989 1.5957 17.0562 1.5957C16.6457 1.5957 16.3029 1.67611 16.0278 1.83691C15.757 1.99349 15.5539 2.21354 15.4185 2.49707C15.283 2.7806 15.2153 3.10645 15.2153 3.47461H14.041C14.041 2.9541 14.1553 2.47803 14.3838 2.04639C14.6123 1.61475 14.9508 1.27197 15.3994 1.01807C15.848 0.759928 16.4002 0.630859 17.0562 0.630859C17.6401 0.630859 18.1395 0.734538 18.5542 0.941895C18.9689 1.14502 19.2863 1.43278 19.5063 1.80518C19.7306 2.17334 19.8428 2.60498 19.8428 3.1001C19.8428 3.37093 19.7962 3.646 19.7031 3.92529C19.6143 4.20036 19.4894 4.47542 19.3286 4.75049C19.172 5.02555 18.988 5.29639 18.7764 5.56299C18.569 5.82959 18.3468 6.09196 18.1099 6.3501L15.6343 9.03516H20.2681ZM27.3267 4.64258V6.05176C27.3267 6.80924 27.259 7.44824 27.1235 7.96875C26.9881 8.48926 26.7935 8.9082 26.5396 9.22559C26.2856 9.54297 25.9788 9.7736 25.6191 9.91748C25.2637 10.0571 24.8617 10.127 24.4131 10.127C24.0576 10.127 23.7297 10.0825 23.4292 9.99365C23.1287 9.90479 22.8579 9.76302 22.6167 9.56836C22.3797 9.36947 22.1766 9.11133 22.0073 8.79395C21.8381 8.47656 21.709 8.09147 21.6201 7.63867C21.5312 7.18587 21.4868 6.6569 21.4868 6.05176V4.64258C21.4868 3.88509 21.5545 3.25033 21.6899 2.73828C21.8296 2.22624 22.0264 1.81576 22.2803 1.50684C22.5342 1.19368 22.8389 0.969401 23.1943 0.833984C23.554 0.698568 23.9561 0.630859 24.4004 0.630859C24.7601 0.630859 25.0902 0.675293 25.3906 0.76416C25.6953 0.848796 25.9661 0.986328 26.2031 1.17676C26.4401 1.36296 26.6411 1.61263 26.8062 1.92578C26.9754 2.2347 27.1045 2.61344 27.1934 3.06201C27.2822 3.51058 27.3267 4.03743 27.3267 4.64258ZM26.146 6.24219V4.4458C26.146 4.03109 26.1206 3.66715 26.0698 3.354C26.0233 3.03662 25.9535 2.76579 25.8604 2.5415C25.7673 2.31722 25.6488 2.13525 25.5049 1.99561C25.3652 1.85596 25.2023 1.75439 25.0161 1.69092C24.8341 1.62321 24.6289 1.58936 24.4004 1.58936C24.1211 1.58936 23.8735 1.64225 23.6577 1.74805C23.4419 1.84961 23.2599 2.01253 23.1118 2.23682C22.9679 2.4611 22.8579 2.75521 22.7817 3.11914C22.7056 3.48307 22.6675 3.92529 22.6675 4.4458V6.24219C22.6675 6.6569 22.6908 7.02295 22.7373 7.34033C22.7881 7.65771 22.8621 7.93278 22.9595 8.16553C23.0568 8.39404 23.1753 8.58236 23.3149 8.73047C23.4546 8.87858 23.6154 8.98861 23.7974 9.06055C23.9836 9.12826 24.1888 9.16211 24.4131 9.16211C24.7008 9.16211 24.9526 9.1071 25.1685 8.99707C25.3843 8.88704 25.5641 8.71566 25.708 8.48291C25.8561 8.24593 25.9661 7.94336 26.0381 7.5752C26.11 7.2028 26.146 6.75846 26.146 6.24219ZM34.8931 9.03516V10H28.8438V9.15576L31.8716 5.78516C32.244 5.37044 32.5317 5.01921 32.7349 4.73145C32.9422 4.43945 33.0861 4.1792 33.1665 3.95068C33.2511 3.71794 33.2935 3.48096 33.2935 3.23975C33.2935 2.93506 33.23 2.65999 33.103 2.41455C32.9803 2.16488 32.7983 1.96598 32.5571 1.81787C32.3159 1.66976 32.0239 1.5957 31.6812 1.5957C31.2707 1.5957 30.9279 1.67611 30.6528 1.83691C30.382 1.99349 30.1789 2.21354 30.0435 2.49707C29.908 2.7806 29.8403 3.10645 29.8403 3.47461H28.666C28.666 2.9541 28.7803 2.47803 29.0088 2.04639C29.2373 1.61475 29.5758 1.27197 30.0244 1.01807C30.473 0.759928 31.0252 0.630859 31.6812 0.630859C32.2651 0.630859 32.7645 0.734538 33.1792 0.941895C33.5939 1.14502 33.9113 1.43278 34.1313 1.80518C34.3556 2.17334 34.4678 2.60498 34.4678 3.1001C34.4678 3.37093 34.4212 3.646 34.3281 3.92529C34.2393 4.20036 34.1144 4.47542 33.9536 4.75049C33.797 5.02555 33.613 5.29639 33.4014 5.56299C33.194 5.82959 32.9718 6.09196 32.7349 6.3501L30.2593 9.03516H34.8931ZM42.2056 9.03516V10H36.1562V9.15576L39.1841 5.78516C39.5565 5.37044 39.8442 5.01921 40.0474 4.73145C40.2547 4.43945 40.3986 4.1792 40.479 3.95068C40.5636 3.71794 40.606 3.48096 40.606 3.23975C40.606 2.93506 40.5425 2.65999 40.4155 2.41455C40.2928 2.16488 40.1108 1.96598 39.8696 1.81787C39.6284 1.66976 39.3364 1.5957 38.9937 1.5957C38.5832 1.5957 38.2404 1.67611 37.9653 1.83691C37.6945 1.99349 37.4914 2.21354 37.356 2.49707C37.2205 2.7806 37.1528 3.10645 37.1528 3.47461H35.9785C35.9785 2.9541 36.0928 2.47803 36.3213 2.04639C36.5498 1.61475 36.8883 1.27197 37.3369 1.01807C37.7855 0.759928 38.3377 0.630859 38.9937 0.630859C39.5776 0.630859 40.077 0.734538 40.4917 0.941895C40.9064 1.14502 41.2238 1.43278 41.4438 1.80518C41.6681 2.17334 41.7803 2.60498 41.7803 3.1001C41.7803 3.37093 41.7337 3.646 41.6406 3.92529C41.5518 4.20036 41.4269 4.47542 41.2661 4.75049C41.1095 5.02555 40.9255 5.29639 40.7139 5.56299C40.5065 5.82959 40.2843 6.09196 40.0474 6.3501L37.5718 9.03516H42.2056ZM49.334 3.99512L47.6772 6.54688L46.5601 6.54053V6.45801L48.4326 3.99512H49.334ZM47.6772 6.48975L49.334 9.04785H48.4326L46.5601 6.57861V6.49609L47.6772 6.48975ZM51.4351 3.99512L49.7783 6.54688L48.6611 6.54053V6.45801L50.5337 3.99512H51.4351ZM49.7783 6.48975L51.4351 9.04785H50.5337L48.6611 6.57861V6.49609L49.7783 6.48975ZM56.5132 0.757812V10H55.3071V0.757812H56.5132ZM59.4839 0.757812V1.76074H52.3428V0.757812H59.4839ZM61.2485 8.14014L64.416 3.13184H65.5967V10H64.416V4.9917L61.2485 10H60.0806V3.13184H61.2485V8.14014ZM72.1411 6.10889V7.06104H68.5103V6.10889H72.1411ZM68.7578 3.13184V10H67.5835V3.13184H68.7578ZM73.0933 3.13184V10H71.9126V3.13184H73.0933ZM75.9497 5.49316H78.0127C78.5671 5.49316 79.0347 5.59049 79.4155 5.78516C79.7964 5.97559 80.0841 6.24007 80.2788 6.57861C80.4777 6.91292 80.5771 7.29378 80.5771 7.72119C80.5771 8.03857 80.5221 8.33691 80.4121 8.61621C80.3021 8.89128 80.137 9.13249 79.917 9.33984C79.7012 9.5472 79.4325 9.71012 79.1108 9.82861C78.7935 9.94287 78.4274 10 78.0127 10H75.0928V3.13184H76.2671V9.03516H78.0127C78.3512 9.03516 78.6221 8.9738 78.8252 8.85107C79.0283 8.72835 79.1743 8.56966 79.2632 8.375C79.3521 8.18034 79.3965 7.97721 79.3965 7.76562C79.3965 7.55827 79.3521 7.35514 79.2632 7.15625C79.1743 6.95736 79.0283 6.79232 78.8252 6.66113C78.6221 6.52572 78.3512 6.45801 78.0127 6.45801H75.9497V5.49316ZM83.3193 3.13184V10H82.145V3.13184H83.3193ZM87.8262 3.13184L84.5698 7.06738H82.9258L82.748 6.03906H84.0938L86.3979 3.13184H87.8262ZM86.563 10L84.0366 6.88965L84.792 6.03906L88.0547 10H86.563ZM88.626 6.64209V6.49609C88.626 6.00098 88.6979 5.54183 88.8418 5.11865C88.9857 4.69124 89.193 4.32096 89.4639 4.00781C89.7347 3.69043 90.0627 3.44499 90.4478 3.27148C90.8328 3.09375 91.2645 3.00488 91.7427 3.00488C92.2251 3.00488 92.6589 3.09375 93.0439 3.27148C93.4333 3.44499 93.7633 3.69043 94.0342 4.00781C94.3092 4.32096 94.5187 4.69124 94.6626 5.11865C94.8065 5.54183 94.8784 6.00098 94.8784 6.49609V6.64209C94.8784 7.13721 94.8065 7.59635 94.6626 8.01953C94.5187 8.44271 94.3092 8.81299 94.0342 9.13037C93.7633 9.44352 93.4354 9.68896 93.0503 9.8667C92.6694 10.0402 92.2378 10.127 91.7554 10.127C91.2729 10.127 90.8392 10.0402 90.4541 9.8667C90.069 9.68896 89.7389 9.44352 89.4639 9.13037C89.193 8.81299 88.9857 8.44271 88.8418 8.01953C88.6979 7.59635 88.626 7.13721 88.626 6.64209ZM89.8003 6.49609V6.64209C89.8003 6.98486 89.8405 7.30859 89.9209 7.61328C90.0013 7.91374 90.1219 8.18034 90.2827 8.41309C90.4478 8.64583 90.653 8.82992 90.8984 8.96533C91.1439 9.09652 91.4295 9.16211 91.7554 9.16211C92.077 9.16211 92.3584 9.09652 92.5996 8.96533C92.8451 8.82992 93.0482 8.64583 93.209 8.41309C93.3698 8.18034 93.4904 7.91374 93.5708 7.61328C93.6554 7.30859 93.6978 6.98486 93.6978 6.64209V6.49609C93.6978 6.15755 93.6554 5.83805 93.5708 5.5376C93.4904 5.23291 93.3677 4.96419 93.2026 4.73145C93.0418 4.49447 92.8387 4.30827 92.5933 4.17285C92.3521 4.03743 92.0685 3.96973 91.7427 3.96973C91.4211 3.96973 91.1375 4.03743 90.8921 4.17285C90.6509 4.30827 90.4478 4.49447 90.2827 4.73145C90.1219 4.96419 90.0013 5.23291 89.9209 5.5376C89.8405 5.83805 89.8003 6.15755 89.8003 6.49609ZM104.248 6.68652V6.81982C104.248 7.30225 104.195 7.74658 104.089 8.15283C103.983 8.55485 103.824 8.90397 103.613 9.2002C103.405 9.49642 103.147 9.72705 102.838 9.89209C102.529 10.0529 102.172 10.1333 101.766 10.1333C101.431 10.1333 101.137 10.0889 100.883 10C100.629 9.9069 100.414 9.7736 100.236 9.6001C100.062 9.4266 99.9227 9.21924 99.8169 8.97803C99.7153 8.73258 99.6455 8.45752 99.6074 8.15283V5.10596C99.6455 4.78011 99.7153 4.48812 99.8169 4.22998C99.9227 3.97184 100.062 3.75179 100.236 3.56982C100.414 3.38786 100.627 3.24821 100.877 3.15088C101.127 3.05355 101.419 3.00488 101.753 3.00488C102.083 3.00488 102.379 3.06413 102.642 3.18262C102.908 3.29688 103.141 3.46191 103.34 3.67773C103.543 3.89355 103.71 4.15381 103.841 4.4585C103.977 4.75895 104.078 5.09749 104.146 5.47412C104.214 5.85075 104.248 6.25488 104.248 6.68652ZM103.073 6.81982V6.68652C103.073 6.3903 103.052 6.10889 103.01 5.84229C102.972 5.57145 102.91 5.32389 102.826 5.09961C102.745 4.87109 102.639 4.6722 102.508 4.50293C102.377 4.33366 102.218 4.20247 102.032 4.10938C101.85 4.01628 101.641 3.96973 101.404 3.96973C101.15 3.96973 100.938 4.00146 100.769 4.06494C100.604 4.12842 100.475 4.21305 100.382 4.31885C100.289 4.42041 100.221 4.52832 100.179 4.64258V8.62256C100.229 8.71566 100.304 8.80452 100.401 8.88916C100.498 8.96956 100.629 9.03727 100.794 9.09229C100.959 9.14307 101.167 9.16846 101.417 9.16846C101.713 9.16846 101.965 9.10921 102.172 8.99072C102.383 8.868 102.555 8.69873 102.686 8.48291C102.821 8.26709 102.919 8.01742 102.978 7.73389C103.042 7.45036 103.073 7.14567 103.073 6.81982ZM96.0908 6.81982V6.68652C96.0908 6.25488 96.1247 5.85075 96.1924 5.47412C96.2601 5.09749 96.3617 4.75895 96.4971 4.4585C96.6325 4.15381 96.7996 3.89355 96.9985 3.67773C97.2017 3.46191 97.4344 3.29688 97.6968 3.18262C97.9634 3.06413 98.2617 3.00488 98.5918 3.00488C98.9176 3.00488 99.2012 3.05355 99.4424 3.15088C99.6878 3.24821 99.8952 3.38786 100.064 3.56982C100.234 3.75179 100.369 3.97184 100.471 4.22998C100.572 4.48812 100.644 4.78011 100.687 5.10596V8.03223C100.648 8.35384 100.579 8.64372 100.477 8.90186C100.375 9.15999 100.24 9.38216 100.071 9.56836C99.9015 9.75033 99.6921 9.88997 99.4424 9.9873C99.1969 10.0846 98.9092 10.1333 98.5791 10.1333C98.1729 10.1333 97.8153 10.0529 97.5063 9.89209C97.1974 9.72705 96.9372 9.49642 96.7256 9.2002C96.5182 8.90397 96.3595 8.55485 96.2495 8.15283C96.1437 7.74658 96.0908 7.30225 96.0908 6.81982ZM97.2715 6.68652V6.81982C97.2715 7.14567 97.299 7.45036 97.354 7.73389C97.4132 8.01742 97.5042 8.26709 97.627 8.48291C97.7539 8.69873 97.9189 8.868 98.1221 8.99072C98.3252 9.10921 98.5749 9.16846 98.8711 9.16846C99.125 9.16846 99.3345 9.13672 99.4995 9.07324C99.6646 9.00977 99.7957 8.92725 99.8931 8.82568C99.9904 8.72412 100.064 8.61833 100.115 8.5083V4.64258C100.073 4.52832 100.003 4.42041 99.9058 4.31885C99.8127 4.21305 99.6836 4.12842 99.5186 4.06494C99.3535 4.00146 99.1419 3.96973 98.8838 3.96973C98.5876 3.96973 98.3358 4.04167 98.1284 4.18555C97.9211 4.32943 97.7539 4.5262 97.627 4.77588C97.5042 5.02555 97.4132 5.31543 97.354 5.64551C97.299 5.97135 97.2715 6.31836 97.2715 6.68652ZM99.5312 12.6406V0.25H100.712V12.6406H99.5312ZM113.68 6.68652V6.81982C113.68 7.30225 113.627 7.74658 113.521 8.15283C113.416 8.55485 113.257 8.90397 113.045 9.2002C112.838 9.49642 112.58 9.72705 112.271 9.89209C111.962 10.0529 111.604 10.1333 111.198 10.1333C110.864 10.1333 110.57 10.0889 110.316 10C110.062 9.9069 109.846 9.7736 109.668 9.6001C109.495 9.4266 109.355 9.21924 109.25 8.97803C109.148 8.73258 109.078 8.45752 109.04 8.15283V5.10596C109.078 4.78011 109.148 4.48812 109.25 4.22998C109.355 3.97184 109.495 3.75179 109.668 3.56982C109.846 3.38786 110.06 3.24821 110.31 3.15088C110.559 3.05355 110.851 3.00488 111.186 3.00488C111.516 3.00488 111.812 3.06413 112.074 3.18262C112.341 3.29688 112.574 3.46191 112.772 3.67773C112.976 3.89355 113.143 4.15381 113.274 4.4585C113.409 4.75895 113.511 5.09749 113.579 5.47412C113.646 5.85075 113.68 6.25488 113.68 6.68652ZM112.506 6.81982V6.68652C112.506 6.3903 112.485 6.10889 112.442 5.84229C112.404 5.57145 112.343 5.32389 112.258 5.09961C112.178 4.87109 112.072 4.6722 111.941 4.50293C111.81 4.33366 111.651 4.20247 111.465 4.10938C111.283 4.01628 111.073 3.96973 110.836 3.96973C110.583 3.96973 110.371 4.00146 110.202 4.06494C110.037 4.12842 109.908 4.21305 109.814 4.31885C109.721 4.42041 109.654 4.52832 109.611 4.64258V8.62256C109.662 8.71566 109.736 8.80452 109.833 8.88916C109.931 8.96956 110.062 9.03727 110.227 9.09229C110.392 9.14307 110.599 9.16846 110.849 9.16846C111.145 9.16846 111.397 9.10921 111.604 8.99072C111.816 8.868 111.987 8.69873 112.119 8.48291C112.254 8.26709 112.351 8.01742 112.411 7.73389C112.474 7.45036 112.506 7.14567 112.506 6.81982ZM105.523 6.81982V6.68652C105.523 6.25488 105.557 5.85075 105.625 5.47412C105.693 5.09749 105.794 4.75895 105.93 4.4585C106.065 4.15381 106.232 3.89355 106.431 3.67773C106.634 3.46191 106.867 3.29688 107.129 3.18262C107.396 3.06413 107.694 3.00488 108.024 3.00488C108.35 3.00488 108.634 3.05355 108.875 3.15088C109.12 3.24821 109.328 3.38786 109.497 3.56982C109.666 3.75179 109.802 3.97184 109.903 4.22998C110.005 4.48812 110.077 4.78011 110.119 5.10596V8.03223C110.081 8.35384 110.011 8.64372 109.91 8.90186C109.808 9.15999 109.673 9.38216 109.503 9.56836C109.334 9.75033 109.125 9.88997 108.875 9.9873C108.63 10.0846 108.342 10.1333 108.012 10.1333C107.605 10.1333 107.248 10.0529 106.939 9.89209C106.63 9.72705 106.37 9.49642 106.158 9.2002C105.951 8.90397 105.792 8.55485 105.682 8.15283C105.576 7.74658 105.523 7.30225 105.523 6.81982ZM106.704 6.68652V6.81982C106.704 7.14567 106.732 7.45036 106.787 7.73389C106.846 8.01742 106.937 8.26709 107.06 8.48291C107.187 8.69873 107.352 8.868 107.555 8.99072C107.758 9.10921 108.007 9.16846 108.304 9.16846C108.558 9.16846 108.767 9.13672 108.932 9.07324C109.097 9.00977 109.228 8.92725 109.326 8.82568C109.423 8.72412 109.497 8.61833 109.548 8.5083V4.64258C109.506 4.52832 109.436 4.42041 109.338 4.31885C109.245 4.21305 109.116 4.12842 108.951 4.06494C108.786 4.00146 108.575 3.96973 108.316 3.96973C108.02 3.96973 107.768 4.04167 107.561 4.18555C107.354 4.32943 107.187 4.5262 107.06 4.77588C106.937 5.02555 106.846 5.31543 106.787 5.64551C106.732 5.97135 106.704 6.31836 106.704 6.68652ZM108.964 12.6406V0.25H110.145V12.6406H108.964ZM125.734 5.08691V5.6709C125.734 6.36491 125.648 6.98698 125.474 7.53711C125.301 8.08724 125.051 8.55485 124.725 8.93994C124.399 9.32503 124.008 9.61914 123.551 9.82227C123.098 10.0254 122.59 10.127 122.027 10.127C121.481 10.127 120.98 10.0254 120.523 9.82227C120.07 9.61914 119.677 9.32503 119.342 8.93994C119.012 8.55485 118.756 8.08724 118.574 7.53711C118.392 6.98698 118.301 6.36491 118.301 5.6709V5.08691C118.301 4.3929 118.39 3.77295 118.568 3.22705C118.75 2.67692 119.006 2.20931 119.336 1.82422C119.666 1.4349 120.057 1.13867 120.51 0.935547C120.967 0.732422 121.469 0.630859 122.015 0.630859C122.577 0.630859 123.085 0.732422 123.538 0.935547C123.995 1.13867 124.387 1.4349 124.712 1.82422C125.042 2.20931 125.294 2.67692 125.468 3.22705C125.646 3.77295 125.734 4.3929 125.734 5.08691ZM124.522 5.6709V5.07422C124.522 4.52409 124.465 4.03743 124.351 3.61426C124.241 3.19108 124.078 2.83561 123.862 2.54785C123.646 2.26009 123.382 2.04215 123.068 1.89404C122.759 1.74593 122.408 1.67188 122.015 1.67188C121.634 1.67188 121.289 1.74593 120.98 1.89404C120.675 2.04215 120.413 2.26009 120.193 2.54785C119.977 2.83561 119.81 3.19108 119.691 3.61426C119.573 4.03743 119.514 4.52409 119.514 5.07422V5.6709C119.514 6.22526 119.573 6.71615 119.691 7.14355C119.81 7.56673 119.979 7.92432 120.199 8.21631C120.424 8.50407 120.688 8.72201 120.993 8.87012C121.302 9.01823 121.646 9.09229 122.027 9.09229C122.425 9.09229 122.778 9.01823 123.087 8.87012C123.396 8.72201 123.657 8.50407 123.868 8.21631C124.084 7.92432 124.247 7.56673 124.357 7.14355C124.467 6.71615 124.522 6.22526 124.522 5.6709ZM131.796 0.14209H132.761C132.761 0.556803 132.698 0.886882 132.571 1.13232C132.444 1.37354 132.27 1.55973 132.05 1.69092C131.834 1.8221 131.589 1.92155 131.314 1.98926C131.043 2.05697 130.762 2.12256 130.47 2.18604C130.106 2.26221 129.767 2.38281 129.454 2.54785C129.145 2.70866 128.879 2.93717 128.654 3.2334C128.434 3.52962 128.271 3.91471 128.166 4.38867C128.064 4.86263 128.036 5.44873 128.083 6.14697V6.73096H127.118V6.14697C127.118 5.3641 127.192 4.68066 127.34 4.09668C127.493 3.5127 127.706 3.01969 127.981 2.61768C128.257 2.21566 128.582 1.89616 128.959 1.65918C129.34 1.4222 129.759 1.25928 130.216 1.17041C130.546 1.10693 130.829 1.03923 131.066 0.967285C131.303 0.891113 131.483 0.789551 131.606 0.662598C131.733 0.535645 131.796 0.362142 131.796 0.14209ZM130.406 3.52539C130.855 3.52539 131.255 3.60368 131.606 3.76025C131.957 3.91683 132.256 4.13477 132.501 4.41406C132.746 4.69336 132.933 5.02344 133.06 5.4043C133.191 5.78092 133.256 6.19141 133.256 6.63574V6.77539C133.256 7.25358 133.187 7.69792 133.047 8.1084C132.911 8.51465 132.71 8.87012 132.444 9.1748C132.181 9.47526 131.86 9.71012 131.479 9.87939C131.102 10.0487 130.673 10.1333 130.19 10.1333C129.708 10.1333 129.276 10.0487 128.896 9.87939C128.519 9.71012 128.197 9.47526 127.931 9.1748C127.664 8.87012 127.461 8.51465 127.321 8.1084C127.186 7.69792 127.118 7.25358 127.118 6.77539V6.63574C127.118 6.52995 127.137 6.42627 127.175 6.32471C127.213 6.22314 127.26 6.11947 127.315 6.01367C127.374 5.90788 127.427 5.79574 127.474 5.67725C127.63 5.29639 127.844 4.94303 128.115 4.61719C128.39 4.29134 128.718 4.02897 129.099 3.83008C129.484 3.62695 129.92 3.52539 130.406 3.52539ZM130.178 4.48389C129.746 4.48389 129.391 4.58333 129.111 4.78223C128.836 4.98112 128.631 5.24561 128.496 5.57568C128.36 5.90153 128.292 6.25488 128.292 6.63574V6.77539C128.292 7.09701 128.331 7.40169 128.407 7.68945C128.483 7.97721 128.597 8.23324 128.75 8.45752C128.906 8.67757 129.103 8.85107 129.34 8.97803C129.581 9.10498 129.865 9.16846 130.19 9.16846C130.516 9.16846 130.798 9.10498 131.035 8.97803C131.272 8.85107 131.466 8.67757 131.619 8.45752C131.771 8.23324 131.885 7.97721 131.961 7.68945C132.038 7.40169 132.076 7.09701 132.076 6.77539V6.63574C132.076 6.34798 132.038 6.07503 131.961 5.81689C131.885 5.55876 131.769 5.33024 131.612 5.13135C131.46 4.93245 131.263 4.77588 131.022 4.66162C130.785 4.54313 130.504 4.48389 130.178 4.48389ZM135.649 4.45215V12.6406H134.469V3.13184H135.548L135.649 4.45215ZM140.277 6.50879V6.64209C140.277 7.14144 140.218 7.60482 140.099 8.03223C139.981 8.4554 139.807 8.82357 139.579 9.13672C139.354 9.44987 139.077 9.6932 138.747 9.8667C138.417 10.0402 138.038 10.127 137.611 10.127C137.175 10.127 136.79 10.055 136.456 9.91113C136.121 9.76725 135.838 9.55778 135.605 9.28271C135.372 9.00765 135.186 8.67757 135.046 8.29248C134.911 7.90739 134.818 7.47363 134.767 6.99121V6.28027C134.818 5.77246 134.913 5.31755 135.053 4.91553C135.192 4.51351 135.376 4.17074 135.605 3.88721C135.838 3.59945 136.119 3.38151 136.449 3.2334C136.779 3.08105 137.16 3.00488 137.592 3.00488C138.023 3.00488 138.406 3.08952 138.741 3.25879C139.075 3.42383 139.356 3.66081 139.585 3.96973C139.813 4.27865 139.985 4.64893 140.099 5.08057C140.218 5.50798 140.277 5.98405 140.277 6.50879ZM139.096 6.64209V6.50879C139.096 6.16602 139.06 5.8444 138.988 5.54395C138.916 5.23926 138.804 4.97266 138.652 4.74414C138.504 4.51139 138.313 4.32943 138.081 4.19824C137.848 4.06283 137.571 3.99512 137.249 3.99512C136.953 3.99512 136.695 4.0459 136.475 4.14746C136.259 4.24902 136.075 4.38656 135.922 4.56006C135.77 4.72933 135.645 4.92399 135.548 5.14404C135.455 5.35986 135.385 5.58415 135.338 5.81689V7.46094C135.423 7.75716 135.542 8.03646 135.694 8.29883C135.846 8.55697 136.049 8.76644 136.303 8.92725C136.557 9.08382 136.877 9.16211 137.262 9.16211C137.579 9.16211 137.852 9.09652 138.081 8.96533C138.313 8.82992 138.504 8.64583 138.652 8.41309C138.804 8.18034 138.916 7.91374 138.988 7.61328C139.06 7.30859 139.096 6.98486 139.096 6.64209ZM145.825 8.82568V5.29004C145.825 5.01921 145.77 4.78434 145.66 4.58545C145.554 4.38232 145.393 4.22575 145.177 4.11572C144.961 4.0057 144.695 3.95068 144.377 3.95068C144.081 3.95068 143.821 4.00146 143.597 4.10303C143.377 4.20459 143.203 4.33789 143.076 4.50293C142.953 4.66797 142.892 4.8457 142.892 5.03613H141.718C141.718 4.79069 141.781 4.54736 141.908 4.30615C142.035 4.06494 142.217 3.84701 142.454 3.65234C142.695 3.45345 142.983 3.29688 143.317 3.18262C143.656 3.06413 144.033 3.00488 144.447 3.00488C144.947 3.00488 145.387 3.08952 145.768 3.25879C146.153 3.42806 146.453 3.68408 146.669 4.02686C146.889 4.3654 146.999 4.79069 146.999 5.30273V8.50195C146.999 8.73047 147.018 8.9738 147.056 9.23193C147.098 9.49007 147.16 9.71224 147.24 9.89844V10H146.015C145.956 9.86458 145.909 9.68473 145.875 9.46045C145.842 9.23193 145.825 9.02035 145.825 8.82568ZM146.028 5.83594L146.041 6.66113H144.854C144.519 6.66113 144.221 6.68864 143.958 6.74365C143.696 6.79443 143.476 6.87272 143.298 6.97852C143.121 7.08431 142.985 7.21761 142.892 7.37842C142.799 7.53499 142.752 7.71908 142.752 7.93066C142.752 8.14648 142.801 8.34326 142.898 8.521C142.996 8.69873 143.142 8.84049 143.336 8.94629C143.535 9.04785 143.779 9.09863 144.066 9.09863C144.426 9.09863 144.743 9.02246 145.019 8.87012C145.294 8.71777 145.512 8.53158 145.672 8.31152C145.837 8.09147 145.926 7.87777 145.939 7.67041L146.44 8.23535C146.411 8.41309 146.33 8.60986 146.199 8.82568C146.068 9.0415 145.892 9.24886 145.672 9.44775C145.457 9.64242 145.198 9.80534 144.898 9.93652C144.602 10.0635 144.267 10.127 143.895 10.127C143.43 10.127 143.021 10.036 142.67 9.854C142.323 9.67204 142.052 9.42871 141.857 9.12402C141.667 8.8151 141.572 8.47021 141.572 8.08936C141.572 7.72119 141.644 7.39746 141.788 7.11816C141.931 6.83464 142.139 6.59977 142.41 6.41357C142.681 6.22314 143.006 6.07926 143.387 5.98193C143.768 5.8846 144.193 5.83594 144.663 5.83594H146.028ZM151.411 6.71826H150.147V5.99463H151.315C151.641 5.99463 151.899 5.95443 152.09 5.87402C152.28 5.78939 152.416 5.67301 152.496 5.5249C152.576 5.37679 152.617 5.20329 152.617 5.00439C152.617 4.82666 152.57 4.65951 152.477 4.50293C152.388 4.34212 152.244 4.21305 152.045 4.11572C151.847 4.01416 151.58 3.96338 151.246 3.96338C150.975 3.96338 150.729 4.01204 150.509 4.10938C150.289 4.20247 150.114 4.33154 149.982 4.49658C149.855 4.65739 149.792 4.83936 149.792 5.04248H148.618C148.618 4.62354 148.736 4.26383 148.973 3.96338C149.214 3.65869 149.534 3.42383 149.932 3.25879C150.334 3.09375 150.772 3.01123 151.246 3.01123C151.643 3.01123 151.999 3.05566 152.312 3.14453C152.629 3.22917 152.898 3.35612 153.118 3.52539C153.338 3.69043 153.505 3.89779 153.62 4.14746C153.738 4.3929 153.797 4.67855 153.797 5.00439C153.797 5.23714 153.742 5.45719 153.632 5.66455C153.522 5.87191 153.364 6.05599 153.156 6.2168C152.949 6.37337 152.697 6.49609 152.401 6.58496C152.109 6.67383 151.779 6.71826 151.411 6.71826ZM150.147 6.27393H151.411C151.821 6.27393 152.183 6.31413 152.496 6.39453C152.809 6.4707 153.072 6.58496 153.283 6.7373C153.495 6.88965 153.653 7.07796 153.759 7.30225C153.869 7.5223 153.924 7.7762 153.924 8.06396C153.924 8.38558 153.859 8.67546 153.728 8.93359C153.601 9.1875 153.419 9.40332 153.182 9.58105C152.945 9.75879 152.661 9.89421 152.331 9.9873C152.005 10.0804 151.643 10.127 151.246 10.127C150.801 10.127 150.37 10.0508 149.951 9.89844C149.532 9.74609 149.187 9.51123 148.916 9.19385C148.645 8.87223 148.51 8.46387 148.51 7.96875H149.684C149.684 8.17611 149.75 8.37288 149.881 8.55908C150.012 8.74528 150.194 8.89551 150.427 9.00977C150.664 9.12402 150.937 9.18115 151.246 9.18115C151.576 9.18115 151.851 9.13037 152.071 9.02881C152.291 8.92725 152.456 8.79183 152.566 8.62256C152.68 8.45329 152.737 8.26921 152.737 8.07031C152.737 7.81217 152.687 7.60482 152.585 7.44824C152.483 7.29167 152.327 7.17741 152.115 7.10547C151.908 7.0293 151.641 6.99121 151.315 6.99121H150.147V6.27393ZM155.137 6.64209V6.49609C155.137 6.00098 155.209 5.54183 155.353 5.11865C155.496 4.69124 155.704 4.32096 155.975 4.00781C156.245 3.69043 156.573 3.44499 156.958 3.27148C157.344 3.09375 157.775 3.00488 158.253 3.00488C158.736 3.00488 159.17 3.09375 159.555 3.27148C159.944 3.44499 160.274 3.69043 160.545 4.00781C160.82 4.32096 161.029 4.69124 161.173 5.11865C161.317 5.54183 161.389 6.00098 161.389 6.49609V6.64209C161.389 7.13721 161.317 7.59635 161.173 8.01953C161.029 8.44271 160.82 8.81299 160.545 9.13037C160.274 9.44352 159.946 9.68896 159.561 9.8667C159.18 10.0402 158.749 10.127 158.266 10.127C157.784 10.127 157.35 10.0402 156.965 9.8667C156.58 9.68896 156.25 9.44352 155.975 9.13037C155.704 8.81299 155.496 8.44271 155.353 8.01953C155.209 7.59635 155.137 7.13721 155.137 6.64209ZM156.311 6.49609V6.64209C156.311 6.98486 156.351 7.30859 156.432 7.61328C156.512 7.91374 156.633 8.18034 156.793 8.41309C156.958 8.64583 157.164 8.82992 157.409 8.96533C157.655 9.09652 157.94 9.16211 158.266 9.16211C158.588 9.16211 158.869 9.09652 159.11 8.96533C159.356 8.82992 159.559 8.64583 159.72 8.41309C159.881 8.18034 160.001 7.91374 160.082 7.61328C160.166 7.30859 160.208 6.98486 160.208 6.64209V6.49609C160.208 6.15755 160.166 5.83805 160.082 5.5376C160.001 5.23291 159.878 4.96419 159.713 4.73145C159.553 4.49447 159.349 4.30827 159.104 4.17285C158.863 4.03743 158.579 3.96973 158.253 3.96973C157.932 3.96973 157.648 4.03743 157.403 4.17285C157.162 4.30827 156.958 4.49447 156.793 4.73145C156.633 4.96419 156.512 5.23291 156.432 5.5376C156.351 5.83805 156.311 6.15755 156.311 6.49609ZM166.086 6.97852H163.833L163.82 6.03906H165.661C166.025 6.03906 166.328 6.00309 166.569 5.93115C166.814 5.85921 166.998 5.7513 167.121 5.60742C167.244 5.46354 167.305 5.28581 167.305 5.07422C167.305 4.90918 167.269 4.7653 167.197 4.64258C167.13 4.51562 167.026 4.41195 166.886 4.33154C166.747 4.24691 166.573 4.18555 166.366 4.14746C166.163 4.10514 165.924 4.08398 165.648 4.08398H164.144V10H162.97V3.13184H165.648C166.084 3.13184 166.476 3.16992 166.823 3.24609C167.174 3.32227 167.472 3.43864 167.718 3.59521C167.967 3.74756 168.158 3.94222 168.289 4.1792C168.42 4.41618 168.486 4.69548 168.486 5.01709C168.486 5.22445 168.444 5.42122 168.359 5.60742C168.274 5.79362 168.149 5.95866 167.984 6.10254C167.819 6.24642 167.616 6.36491 167.375 6.45801C167.134 6.54688 166.857 6.604 166.543 6.62939L166.086 6.97852ZM166.086 10H163.408L163.992 9.04785H166.086C166.412 9.04785 166.683 9.00765 166.899 8.92725C167.115 8.84261 167.276 8.72412 167.381 8.57178C167.491 8.4152 167.546 8.229 167.546 8.01318C167.546 7.79736 167.491 7.61328 167.381 7.46094C167.276 7.30436 167.115 7.18587 166.899 7.10547C166.683 7.02083 166.412 6.97852 166.086 6.97852H164.303L164.315 6.03906H166.543L166.969 6.39453C167.345 6.42415 167.665 6.51725 167.927 6.67383C168.19 6.8304 168.389 7.0293 168.524 7.27051C168.659 7.50749 168.727 7.76562 168.727 8.04492C168.727 8.36654 168.666 8.65007 168.543 8.89551C168.424 9.14095 168.251 9.34619 168.022 9.51123C167.794 9.67204 167.517 9.79476 167.191 9.87939C166.865 9.9598 166.497 10 166.086 10ZM174.351 8.82568V5.29004C174.351 5.01921 174.296 4.78434 174.186 4.58545C174.08 4.38232 173.919 4.22575 173.704 4.11572C173.488 4.0057 173.221 3.95068 172.904 3.95068C172.608 3.95068 172.347 4.00146 172.123 4.10303C171.903 4.20459 171.729 4.33789 171.603 4.50293C171.48 4.66797 171.418 4.8457 171.418 5.03613H170.244C170.244 4.79069 170.308 4.54736 170.435 4.30615C170.562 4.06494 170.743 3.84701 170.98 3.65234C171.222 3.45345 171.509 3.29688 171.844 3.18262C172.182 3.06413 172.559 3.00488 172.974 3.00488C173.473 3.00488 173.913 3.08952 174.294 3.25879C174.679 3.42806 174.979 3.68408 175.195 4.02686C175.415 4.3654 175.525 4.79069 175.525 5.30273V8.50195C175.525 8.73047 175.544 8.9738 175.583 9.23193C175.625 9.49007 175.686 9.71224 175.767 9.89844V10H174.542C174.482 9.86458 174.436 9.68473 174.402 9.46045C174.368 9.23193 174.351 9.02035 174.351 8.82568ZM174.554 5.83594L174.567 6.66113H173.38C173.046 6.66113 172.747 6.68864 172.485 6.74365C172.222 6.79443 172.002 6.87272 171.825 6.97852C171.647 7.08431 171.512 7.21761 171.418 7.37842C171.325 7.53499 171.279 7.71908 171.279 7.93066C171.279 8.14648 171.327 8.34326 171.425 8.521C171.522 8.69873 171.668 8.84049 171.863 8.94629C172.062 9.04785 172.305 9.09863 172.593 9.09863C172.952 9.09863 173.27 9.02246 173.545 8.87012C173.82 8.71777 174.038 8.53158 174.199 8.31152C174.364 8.09147 174.453 7.87777 174.465 7.67041L174.967 8.23535C174.937 8.41309 174.857 8.60986 174.726 8.82568C174.594 9.0415 174.419 9.24886 174.199 9.44775C173.983 9.64242 173.725 9.80534 173.424 9.93652C173.128 10.0635 172.794 10.127 172.421 10.127C171.956 10.127 171.548 10.036 171.196 9.854C170.849 9.67204 170.578 9.42871 170.384 9.12402C170.193 8.8151 170.098 8.47021 170.098 8.08936C170.098 7.72119 170.17 7.39746 170.314 7.11816C170.458 6.83464 170.665 6.59977 170.936 6.41357C171.207 6.22314 171.533 6.07926 171.914 5.98193C172.294 5.8846 172.72 5.83594 173.189 5.83594H174.554ZM182.032 6.10889V7.06104H178.401V6.10889H182.032ZM178.648 3.13184V10H177.474V3.13184H178.648ZM182.984 3.13184V10H181.803V3.13184H182.984ZM186.145 8.14014L189.312 3.13184H190.493V10H189.312V4.9917L186.145 10H184.977V3.13184H186.145V8.14014ZM195.229 10.127C194.75 10.127 194.317 10.0465 193.927 9.88574C193.542 9.7207 193.21 9.49007 192.931 9.19385C192.656 8.89762 192.444 8.54639 192.296 8.14014C192.148 7.73389 192.074 7.28955 192.074 6.80713V6.54053C192.074 5.98193 192.156 5.4847 192.321 5.04883C192.486 4.60872 192.711 4.23633 192.994 3.93164C193.278 3.62695 193.599 3.39632 193.959 3.23975C194.319 3.08317 194.691 3.00488 195.076 3.00488C195.567 3.00488 195.99 3.08952 196.346 3.25879C196.705 3.42806 197 3.66504 197.228 3.96973C197.457 4.27018 197.626 4.62565 197.736 5.03613C197.846 5.44238 197.901 5.88672 197.901 6.36914V6.896H192.772V5.9375H196.727V5.84863C196.71 5.54395 196.646 5.24772 196.536 4.95996C196.43 4.6722 196.261 4.43522 196.028 4.24902C195.796 4.06283 195.478 3.96973 195.076 3.96973C194.81 3.96973 194.564 4.02686 194.34 4.14111C194.116 4.25114 193.923 4.41618 193.762 4.63623C193.601 4.85628 193.477 5.125 193.388 5.44238C193.299 5.75977 193.254 6.12581 193.254 6.54053V6.80713C193.254 7.13298 193.299 7.43978 193.388 7.72754C193.481 8.01107 193.614 8.26074 193.788 8.47656C193.965 8.69238 194.179 8.86165 194.429 8.98438C194.683 9.1071 194.97 9.16846 195.292 9.16846C195.707 9.16846 196.058 9.08382 196.346 8.91455C196.633 8.74528 196.885 8.51888 197.101 8.23535L197.812 8.80029C197.664 9.02458 197.476 9.23828 197.247 9.44141C197.019 9.64453 196.737 9.80957 196.403 9.93652C196.073 10.0635 195.681 10.127 195.229 10.127ZM199.031 9.02881L200.688 6.47705L201.805 6.4834V6.56592L199.932 9.02881H199.031ZM199.031 3.97607H199.932L201.805 6.44531V6.52783L200.688 6.53418L199.031 3.97607ZM201.246 9.02881L202.903 6.47705L204.02 6.4834V6.56592L202.147 9.02881H201.246ZM201.246 3.97607H202.147L204.02 6.44531V6.52783L202.903 6.53418L201.246 3.97607Z" fill="black" fill-opacity="0.54"/>
</svg>
