<svg width="1104" height="64" viewBox="0 0 1104 64" fill="none" xmlns="http://www.w3.org/2000/svg">
<rect width="1104" height="64" fill="white" fill-opacity="0.01"/>
<g clip-path="url(#clip0_1_7211)">
<path fill-rule="evenodd" clip-rule="evenodd" d="M38 29.3219L37.5071 30.9031C37.2444 31.7232 36.3868 33.0743 34.7876 33.2136C34.962 33.9532 35.352 34.7826 36.2124 35.1404L37.4497 35.6493L36.7815 36.8149C36.6311 37.063 35.8534 38.206 34.2313 38.206C33.9535 38.2051 33.6852 38.1773 33.4282 38.1227C33.3619 38.4122 33.2806 38.7026 33.1843 38.9912C32.8055 40.1229 33.1321 40.911 33.1462 40.9435L33.743 42.2023L32.3727 42.5652C32.3619 42.569 31.9451 42.6815 31.4381 42.6815C31.2045 42.6815 30.9804 42.657 30.7717 42.6076C30.6129 42.5695 30.4592 42.5205 30.3121 42.4607C30.1345 42.7794 29.9207 43.0685 29.6716 43.3255C28.799 44.2251 27.5598 44.6808 25.9889 44.6808L24.8639 44.6662L27.1707 45.6294L25.4461 46.4687C24.8343 46.7681 24.049 47.1513 23.2568 47.4418L23.4781 48.0439L22.871 48.3212C22.8169 48.3456 21.6614 48.863 19.7385 48.9769C19.7385 48.9769 19.2765 49 19.0195 49C18.762 49 18.2949 48.9783 18.2949 48.9783C16.3593 48.8672 15.1944 48.3456 15.1403 48.3212L14.5351 48.0444L14.7545 47.4432C13.9834 47.1612 13.2268 46.7926 12.5882 46.481L10.8312 45.6303L13.1455 44.6662L12.0252 44.6808H12.0201C10.4515 44.6808 9.21229 44.2256 8.33824 43.3269C8.08825 43.0675 7.87396 42.778 7.69727 42.4607C7.55066 42.5205 7.39794 42.5695 7.23957 42.6066C7.03046 42.657 6.80584 42.6815 6.57229 42.6815C6.05632 42.6815 5.6442 42.5676 5.62728 42.5624L4.26311 42.2023L4.87447 40.9199L4.87492 40.9188C4.8888 40.8837 5.19783 40.1035 4.8256 38.9922C4.7288 38.7036 4.64703 38.4127 4.58171 38.1227C4.32513 38.1773 4.05916 38.2051 3.78379 38.206C2.51078 38.206 1.61605 37.4631 1.23542 36.8281L0.560143 35.6503L1.79838 35.1395C2.65645 34.7826 3.04696 33.9527 3.22317 33.2127C1.60289 33.0672 0.75704 31.7175 0.503283 30.9027L0 29.3219L1.66116 29.3741C1.7824 29.3736 2.78427 29.3445 3.75418 28.6388C3.73168 28.6407 3.70935 28.643 3.68705 28.6453C3.63624 28.6505 3.58557 28.6557 3.53332 28.6557C2.53474 28.6557 1.5653 28.0522 1.17668 27.1884L0.478848 25.6288C1.51079 25.6481 2.17807 25.5276 2.17807 25.5276L2.17835 25.5275L2.18001 25.5272C2.21892 25.5205 2.82969 25.4156 3.53426 24.6953C4.06104 24.1576 4.71188 23.8728 5.41723 23.8728C5.72549 23.8728 6.00134 23.9284 6.23771 24.0042C6.20105 23.8775 6.16675 23.7504 6.1456 23.6191C5.94166 22.3024 6.69259 21.2559 6.84531 21.0587L8.09154 19.5268L8.85374 21.3256C8.85374 21.3256 9.04453 21.7384 9.38569 21.9409C9.49001 21.415 9.74565 20.8233 10.2908 20.2588C11.3152 19.1949 12.5642 19.0353 13.2179 19.0353C13.5224 19.0353 13.7371 19.0688 13.8081 19.0801L13.8565 19.0876L15.27 19.3667C15.1854 19.0363 15.004 18.4596 14.6709 17.9408L13.8523 16.6641L15.9082 16.899L16.5618 15.5056L17.8334 16.1609L19.0031 15L20.1764 16.1609L21.4448 15.5056L22.1003 16.899L24.1567 16.6651L23.3395 17.9404C23.0068 18.4596 22.8244 19.0377 22.7389 19.3691L24.2201 19.0772C24.2723 19.0688 24.4889 19.0353 24.792 19.0353C25.4456 19.0353 26.6952 19.1949 27.7219 20.2593C28.2661 20.8242 28.5213 21.415 28.6246 21.9409C28.9677 21.7365 29.1604 21.3171 29.1627 21.3114L29.9235 19.523L31.1509 21.0455C31.1514 21.0445 32.0884 22.1574 31.8647 23.6172C31.8436 23.7495 31.8093 23.8775 31.7717 24.0042C32.0095 23.9289 32.2853 23.8728 32.5941 23.8728C33.2989 23.8728 33.9498 24.1576 34.4756 24.6953C35.2087 25.4461 35.8431 25.5285 35.8497 25.529C35.8497 25.529 36.6542 25.6405 37.5348 25.6288L36.8332 27.1884C36.4455 28.0522 35.4765 28.6557 34.4761 28.6557C34.4239 28.6557 34.3731 28.6505 34.3224 28.6452C34.3005 28.6429 34.2786 28.6406 34.2566 28.6388C35.2289 29.3445 36.2308 29.3736 36.3684 29.3736L38 29.3219ZM2.17806 25.5275C2.17803 25.5275 2.17804 25.5276 2.17807 25.5276L2.17806 25.5275Z" fill="white"/>
<path fill-rule="evenodd" clip-rule="evenodd" d="M22.1378 35.5525H13.3681V30.482C13.3681 29.991 13.2243 29.4972 13.0547 29.041H17.0072C17.3831 29.4148 17.7506 29.6483 18.1007 29.7759C18.0556 29.9566 17.9959 30.329 18.1641 30.7004C18.3023 31.0003 18.5513 31.231 18.9122 31.3849C18.9512 31.7554 19.1857 32.3123 19.8319 32.558C19.548 32.8438 19.2731 33.114 19.1618 33.2223L16.5382 33.1804C16.479 33.1507 16.378 33.0839 16.3324 32.9893C16.3297 32.9824 16.3261 32.9771 16.3226 32.9718C16.3192 32.9668 16.3158 32.9617 16.3131 32.9554L16.7412 33.0246C16.7501 33.0255 16.7595 33.0255 16.7684 33.0255H16.7685C16.8512 33.0255 16.9235 32.9685 16.9372 32.8838C16.9513 32.7882 16.8878 32.7012 16.7952 32.6866L16.2685 32.6037L16.8526 30.5818L16.299 29.4148L15.4127 30.3544L15.3582 32.4559L14.7624 32.3617C14.6703 32.3439 14.5824 32.4107 14.5664 32.5044C14.5518 32.5966 14.6148 32.6842 14.7083 32.7007L14.9583 32.7393C14.869 32.7897 14.8098 32.8306 14.8028 32.8358L14.7525 32.872L14.7384 32.9342C14.5932 33.524 14.9212 34.0838 15.2755 34.3342L15.2628 34.4086C15.2483 34.4995 15.2694 34.5875 15.323 34.6619C15.3751 34.7372 15.4536 34.7828 15.5434 34.7984C15.5612 34.8021 15.5805 34.8036 15.5984 34.8036C15.7516 34.8036 15.8855 34.6976 15.9226 34.5413C16.0551 34.5574 16.1759 34.5606 16.2586 34.5606H16.3281L19.7698 35.1839L19.8286 35.1444C20.1021 34.9533 21.1481 34.1902 21.4911 33.9369C21.5847 34.0179 21.6899 34.0913 21.8177 34.1525C21.7064 34.5253 21.6998 35.0992 22.1378 35.5525ZM13.3672 35.8945H24.6424L24.6448 40.1431C24.6448 41.5516 23.8191 42.535 22.5189 42.8552L22.736 41.7187C22.7482 41.6514 22.7623 41.5733 22.7712 41.5074C22.8332 41.5337 22.8981 41.5549 22.9686 41.5681C23.0494 41.5836 23.1246 41.5912 23.1932 41.5912C23.5254 41.5912 23.7195 41.4156 23.8483 41.2663L24.0156 41.071L23.8788 40.8573C23.8666 40.8365 23.5635 40.3573 23.3323 40.0297C23.2862 39.9656 23.2421 39.9011 23.1979 39.8324L23.197 39.8311C22.9326 39.4345 22.6022 38.9389 21.9395 38.9389L21.8798 38.9403C21.7708 38.9474 21.6768 38.9686 21.6002 38.9978C21.3925 38.9003 21.1768 38.849 20.9531 38.849C20.6787 38.849 20.4479 38.9253 20.2933 38.978C20.2794 38.982 20.2661 38.9861 20.2534 38.9901C20.2256 38.9987 20.2006 39.0065 20.1787 39.01L18.939 38.8881C18.923 38.8853 18.8723 38.8551 18.8107 38.7822V38.7756L19.0791 38.6682C19.0034 37.7724 18.1453 37.2216 17.6669 37.0347C17.6458 36.9453 17.6026 36.8558 17.5274 36.7833L17.2609 36.5296L17.0269 36.8111L16.9108 36.9542L15.174 36.2396L16.3042 37.6608L15.8587 38.3378C15.6952 38.5115 15.8751 38.6852 15.8751 38.6852L16.3361 39.0039L16.8136 38.825C16.8243 38.825 16.8342 38.8266 16.8443 38.8282C16.8498 38.8291 16.8553 38.83 16.861 38.8306C16.8476 38.8712 16.8324 38.9785 16.8182 39.079C16.807 39.1581 16.7964 39.233 16.7877 39.268L15.9588 39.1046L15.088 39.5975C14.6407 39.927 14.5796 40.4717 14.7455 40.8445L14.8418 41.0564L14.979 41.3553L15.284 41.2287C15.2887 41.2282 15.2924 41.2263 15.2948 41.2244C15.1853 41.5747 15.2304 41.908 15.425 42.1264L15.6101 42.359L15.8568 42.6711L16.127 42.3806C16.206 42.3006 16.464 42.0116 16.5438 41.7639L16.6021 41.5747L16.4705 41.4292L16.4484 41.4029L16.5969 41.1576L17.6792 41.4128L17.9226 41.4692L18.0518 41.255L18.1223 41.1383C18.1355 41.1138 18.1387 41.1096 18.189 41.1096C18.2271 41.1096 18.2656 41.1138 18.3065 41.1232C18.7158 41.2 19.0917 41.239 19.4259 41.239C19.7506 41.239 19.9442 41.2263 20.1744 41.1496C20.1744 41.1496 20.7557 41.8105 20.7755 41.8355L20.4202 42.9361L20.4042 43.002C19.7304 43.0571 19.4024 43.2049 19.0057 43.6013C18.4301 43.0293 18.0217 42.9686 16.4748 42.9686C14.6223 42.9686 13.3672 41.8812 13.3672 40.1431V35.8945Z" fill="#FFDD2D"/>
<path fill-rule="evenodd" clip-rule="evenodd" d="M16.2932 18.0882L16.5883 18.1193L16.7162 17.8496L17.0879 17.0526L17.7786 17.4103L18.046 17.5473L19.0042 16.5955L19.7509 17.336L19.9647 17.5473L20.2326 17.4103L20.9191 17.0526L21.2965 17.8496L21.4215 18.1193L21.7166 18.0882L21.999 18.0543C21.8698 18.3457 21.7744 18.623 21.7062 18.8523C20.9609 18.4361 19.9924 18.1993 19.0042 18.1993C18.0207 18.1993 17.0531 18.4361 16.305 18.8523C16.2359 18.623 16.1415 18.3457 16.0122 18.0543L16.2932 18.0882ZM19.0042 18.615C20.3265 18.615 21.3843 19.0542 21.9689 19.5217C21.9689 19.5217 22.1423 18.4747 22.7349 17.5511L21.67 17.6726L21.1127 16.4867L20.0427 17.0394L19.0042 16.0117L17.969 17.0394L16.8966 16.4867L16.3402 17.6726L15.2754 17.5511C15.8684 18.4747 16.0414 19.5217 16.0414 19.5217C16.6297 19.0542 17.6842 18.615 19.0042 18.615ZM22.2052 46.6485L21.6901 45.2292C22.3029 45.0423 23.3565 44.6403 23.8287 44.3729L23.5139 45.4057L24.5806 45.7611C23.9354 46.0855 23.153 46.3882 22.2052 46.6485ZM19.0074 47.9243C17.7658 47.9243 16.3495 47.638 15.9317 47.4893L16.5661 45.7705C17.092 45.9245 18.1864 46.0878 18.9806 46.0827H19.0308C19.825 46.0878 20.918 45.9245 21.4467 45.7705L22.0797 47.4893C21.6624 47.638 20.2456 47.9243 19.0074 47.9243ZM13.4308 45.7611L14.4994 45.4057L14.1832 44.3729C14.6545 44.6403 15.7099 45.0423 16.3213 45.2292L15.8058 46.6485C14.8613 46.3882 14.0756 46.0855 13.4308 45.7611ZM24.6285 45.4457L23.9791 45.1962L24.1586 44.5235L24.356 43.791C24.356 43.791 23.2051 44.4167 21.583 44.886C21.1229 45.0178 20.7747 45.0785 20.7747 45.0785V45.5775C20.7747 45.5775 19.9072 45.7282 19.0308 45.7282H18.9806C18.1032 45.7282 17.2372 45.5775 17.2372 45.5775V45.0785C17.2372 45.0785 16.888 45.0178 16.4284 44.886C14.8067 44.4167 13.6569 43.791 13.6569 43.791L13.8514 44.5235L14.0347 45.1962L13.3829 45.4457L12.6602 45.7159C12.7383 45.7538 12.8193 45.7933 12.9029 45.834L12.9029 45.834C13.7041 46.2245 14.7353 46.727 15.6864 46.9879L15.4388 47.6663C15.4388 47.6663 16.771 48.274 18.9904 48.2797V48.2811H19.0205V48.2797C21.2423 48.274 22.5736 47.6663 22.5736 47.6663L22.3245 46.9879C23.2873 46.7239 24.3333 46.2126 25.1357 45.8202L25.3494 45.7159L24.6285 45.4457ZM34.2455 37.0284C35.3019 37.0284 35.7619 36.2258 35.7619 36.2258C33.2305 35.1732 33.48 31.7762 33.48 31.7762C33.48 31.7762 33.8089 32.0219 34.4494 32.045C34.4725 32.0464 34.4922 32.0464 34.5157 32.0464C35.9104 32.0464 36.3831 30.5499 36.3831 30.5499H36.3554C36.0998 30.5499 34.0265 30.4896 32.5604 28.623L32.4331 28.4611C31.5237 27.3019 30.7356 26.2976 29.2427 25.8922L29.0895 25.8649L29.0557 25.7081C29.0129 25.4694 29.1765 25.2449 29.5472 25.0034C31.7023 23.5897 30.2389 21.7862 30.2389 21.7862C30.2389 21.7862 29.6234 23.2282 28.2465 23.2282C28.2299 23.2282 28.2129 23.2277 28.1959 23.2272C28.1787 23.2268 28.1615 23.2263 28.1445 23.2263L28.1172 23.2249C27.9699 23.2175 27.8274 23.2103 27.6845 23.1802L27.4307 23.1307C27.4307 23.1307 27.8236 22.0607 26.8762 21.0787C26.1624 20.3372 25.294 20.2111 24.7926 20.2111C24.5398 20.2111 24.3795 20.2436 24.3795 20.2436C24.8551 20.8668 25.1995 21.9016 24.6502 22.5399C24.4663 22.7523 24.1796 22.8863 23.8974 23.0184C23.4506 23.2273 23.0149 23.4311 23.0149 23.932C23.0149 24.2789 23.3382 24.6828 23.9181 25.0453C25.6615 26.1459 27.3927 27.6067 28.1135 29.5627C29.0129 32.0026 27.9988 33.623 26.5529 34.5522C26.5529 34.5522 27.0068 34.9703 27.6643 35.0239C27.7982 35.0367 27.9288 35.0428 28.051 35.0428C29.4396 35.0428 30.1581 34.3903 30.1581 34.3903C30.1581 34.3903 30.0392 35.2918 29.317 36.1288C28.6502 36.9013 27.7747 37.357 26.4392 37.3758C26.4392 37.3758 26.3974 37.9963 26.989 38.5339C27.3673 38.8733 28.2404 38.983 28.2404 38.983C28.2404 38.983 26.6046 39.3154 26.4241 41.736C26.3255 43.0475 25.9909 43.5032 25.9909 43.5032H26.0205C29.817 43.5032 29.7197 40.2414 29.7197 40.2414C29.7197 40.2414 29.9838 41.2073 31.043 41.4592C31.1713 41.4926 31.3075 41.5058 31.4377 41.5058C31.7784 41.5058 32.0749 41.4253 32.0749 41.4253C32.0749 41.4253 31.52 40.2541 32.0702 38.6144C32.5265 37.2539 32.4532 36.246 32.4532 36.246C32.4532 36.246 32.9645 37.0209 34.2323 37.0284H34.2455ZM36.8211 30.6873C36.7976 30.7622 36.2252 32.5044 34.5157 32.5044L34.4349 32.5021C34.2516 32.4969 34.089 32.472 33.9471 32.4442C34.0166 33.3946 34.3648 35.1506 35.9367 35.8045L36.4184 36.0031L36.1585 36.4565L36.1566 36.4595C36.1118 36.5326 35.5275 37.4851 34.2319 37.4851C33.651 37.4832 33.2013 37.3387 32.8658 37.1635C32.8146 37.5938 32.7093 38.146 32.5035 38.7632C32.0287 40.1784 32.4631 41.1745 32.4866 41.2284L32.487 41.2295L32.7225 41.7275L32.1896 41.8692L32.1872 41.8698C32.1408 41.8813 31.8198 41.961 31.4377 41.961C31.2559 41.961 31.0886 41.9413 30.9354 41.9055C30.5312 41.8099 30.2216 41.6301 29.9814 41.4253C29.8358 41.8721 29.5881 42.3767 29.1558 42.8235C28.4241 43.579 27.3682 43.9599 25.9895 43.9599L25.1549 43.9486L25.6164 43.2424C25.6196 43.2382 25.8861 42.8235 25.9693 41.7031C26.0675 40.3609 26.5741 39.5771 27.0731 39.1271C26.9303 39.0583 26.7944 38.9741 26.6817 38.8714C25.9467 38.2096 25.9777 37.4309 25.982 37.3462L26.0139 36.9263L26.4317 36.9197C27.5562 36.9013 28.3381 36.5657 28.9735 35.828C29.122 35.6548 29.2413 35.482 29.3372 35.3135C28.9871 35.4203 28.5562 35.4999 28.051 35.4999C27.9171 35.4999 27.7742 35.4919 27.6248 35.482C26.8366 35.4143 26.3037 34.9445 26.2435 34.8914L26.2432 34.8912L25.8062 34.4892L26.3053 34.1681C27.4171 33.4535 28.5623 32.0982 27.6845 29.7218C27.1173 28.1768 25.8039 26.7772 23.6751 25.436C22.9557 24.9803 22.5586 24.4441 22.5586 23.932C22.5586 23.1406 23.2202 22.8285 23.7043 22.6058L23.7491 22.5844C23.9703 22.4785 24.193 22.372 24.3053 22.2419C24.6793 21.807 24.364 20.9737 24.0158 20.5223L23.5727 19.9366L24.2912 19.7935C24.2943 19.7932 24.301 19.7922 24.3112 19.7907C24.3704 19.7819 24.5462 19.7559 24.7926 19.7559C25.3321 19.7559 26.364 19.8867 27.2056 20.7595C27.9058 21.4854 27.9965 22.2584 27.9598 22.7579C28.0126 22.7623 28.0665 22.765 28.122 22.7678L28.168 22.7701H28.2465C29.2861 22.7701 29.7862 21.6777 29.8179 21.6085L29.8188 21.6064L30.1163 20.9069L30.5923 21.4967C30.6229 21.5325 31.3231 22.409 31.1548 23.5078C31.0402 24.2384 30.5829 24.8678 29.7963 25.3857C29.7122 25.4407 29.6506 25.4878 29.6078 25.5269C31.0854 26.0084 31.9133 27.0625 32.7844 28.1716L32.7925 28.182L32.9189 28.3401C34.2563 30.0429 36.143 30.0932 36.369 30.0932H36.3714L37.0124 30.073L36.8211 30.6873ZM32.5932 25.0489C32.9118 25.0489 33.2831 25.1576 33.6341 25.5211C34.7361 26.6415 35.761 26.7041 35.761 26.7041C35.5749 27.1174 35.0349 27.4799 34.4757 27.4799C34.3465 27.4799 34.2163 27.4601 34.088 27.4154C33.7389 27.2975 33.4931 26.9926 33.1995 26.6286C32.8554 26.2018 32.4457 25.6938 31.7272 25.3106C31.7272 25.3106 32.0984 25.0489 32.5932 25.0489ZM31.5101 25.7155C32.1477 26.0559 32.5195 26.512 32.8451 26.9164L32.858 26.9323L32.858 26.9323C33.1738 27.3215 33.4751 27.6929 33.9447 27.849C34.1134 27.9069 34.2929 27.9346 34.4757 27.9346C35.1886 27.9346 35.9057 27.4973 36.1773 26.8914L36.4508 26.2846L35.7892 26.2451C35.7581 26.2446 34.9071 26.1665 33.9612 25.1981C33.5716 24.8003 33.1003 24.5918 32.5932 24.5918C31.9961 24.5918 31.5477 24.8797 31.4703 24.9294L31.4631 24.934L30.8555 25.3629L31.5101 25.7155ZM31.8107 31.7911V31.7675C32.393 34.8138 33.6881 35.5957 33.6881 35.5957C32.6575 35.0868 32.0076 33.7367 31.8502 33.2504C31.6792 35.9281 30.3751 37.7857 28.8498 39.5746C28.0584 40.502 27.7826 41.4035 27.7826 41.4035C27.7826 41.4035 27.9353 40.3819 28.619 39.5506C30.042 37.8379 31.3949 35.7059 31.4949 33.241C31.5636 31.5199 31.1228 30.1251 30.4334 28.975C30.8187 30.1726 30.7642 31.639 29.455 33.008C29.455 33.008 32.0612 29.8798 28.4184 26.6725C27.3834 25.8061 26.2787 25.1749 25.4312 24.6906L25.4312 24.6906C25.0847 24.4927 24.7812 24.3192 24.543 24.1643C27.5105 25.1341 28.9597 24.0664 28.9597 24.0664C28.0124 24.8893 26.7854 24.8752 26.0242 24.7565C26.2309 24.8573 26.4452 24.9627 26.6764 25.087C29.1787 26.4484 31.4273 28.6888 31.8107 31.7911ZM11.9898 43.5032C8.19283 43.5032 8.28963 40.2414 8.28963 40.2414C8.28963 40.2414 8.0246 41.2073 6.96681 41.4592C6.83993 41.4926 6.7046 41.5058 6.57255 41.5058C6.23186 41.5058 5.93675 41.4253 5.93675 41.4253C5.93675 41.4253 6.4889 40.2541 5.93863 38.6144C5.48375 37.2544 5.55752 36.246 5.55752 36.246C5.55752 36.246 5.04719 37.0209 3.77794 37.0284H3.76525C2.70982 37.0284 2.24882 36.2258 2.24882 36.2258C4.7784 35.1732 4.53075 31.7762 4.53075 31.7762C4.53075 31.7762 4.20181 32.0219 3.56037 32.045C3.53687 32.0464 3.5162 32.0464 3.49411 32.0464C2.09845 32.0464 1.62571 30.5499 1.62571 30.5499H1.65391C1.91189 30.5499 3.98283 30.4891 5.44803 28.623L5.57246 28.4647C6.48362 27.3037 7.27253 26.2984 8.76472 25.8922L8.9212 25.8644L8.95457 25.7081C8.9978 25.4694 8.83474 25.2449 8.46397 25.0034C6.30939 23.5897 7.77272 21.7867 7.77272 21.7867C7.77272 21.7867 8.38456 23.2282 9.76518 23.2282C9.78155 23.2282 9.79747 23.2278 9.81366 23.2275L9.81374 23.2275C9.83051 23.2271 9.84758 23.2268 9.86574 23.2268L9.90281 23.2248C10.0452 23.2171 10.1861 23.2096 10.3253 23.1802L10.5791 23.1307C10.5791 23.1307 10.1848 22.0607 11.135 21.0787C11.8488 20.3372 12.7163 20.2111 13.2177 20.2111C13.4719 20.2111 13.6298 20.2436 13.6298 20.2436C13.1552 20.8668 12.8112 21.9016 13.3601 22.5399C13.544 22.7522 13.8303 22.8863 14.1123 23.0183C14.5587 23.2273 14.994 23.4311 14.994 23.932C14.994 24.2789 14.6711 24.6828 14.0922 25.0453C12.3474 26.1459 10.6167 27.6067 9.89629 29.5627C8.9978 32.0031 10.0119 33.623 11.4597 34.5522C11.4597 34.5522 11.0044 34.9703 10.346 35.0239C10.2121 35.0367 10.0824 35.0428 9.95785 35.0428C8.57064 35.0428 7.85261 34.3903 7.85261 34.3903C7.85261 34.3903 7.97197 35.2918 8.69 36.1293C9.36105 36.9013 10.2351 37.357 11.5711 37.3758C11.5711 37.3758 11.6134 37.9963 11.0227 38.5334C10.6435 38.8733 9.76988 38.983 9.76988 38.983C9.76988 38.983 11.4071 39.3154 11.5871 41.7355C11.6848 43.0475 12.017 43.5032 12.017 43.5032H11.9898ZM12.3934 43.2424L12.3919 43.2398C12.3704 43.2027 12.1235 42.7772 12.0419 41.7031C11.9428 40.3605 11.4362 39.5771 10.9357 39.1271C11.0805 39.0583 11.2144 38.9741 11.3272 38.8714C12.0621 38.2096 12.0311 37.4309 12.026 37.3462L11.9978 36.9263L11.5767 36.9197C10.4555 36.9013 9.67213 36.5657 9.0368 35.828C8.88925 35.6548 8.76989 35.482 8.67309 35.3135C9.02271 35.4203 9.4508 35.4999 9.95785 35.4999C10.0937 35.4999 10.2351 35.4919 10.3845 35.482C11.174 35.4142 11.7083 34.9434 11.7675 34.8912L12.2045 34.4892L11.7059 34.1681C10.5899 33.4535 9.44939 32.0982 10.3253 29.7218C10.893 28.1768 12.2045 26.7772 14.3366 25.436C15.056 24.9803 15.4498 24.4441 15.4498 23.932C15.4498 23.1406 14.79 22.8285 14.306 22.6058L14.2628 22.5852C14.0406 22.4791 13.8171 22.3723 13.705 22.2419C13.33 21.807 13.6458 20.9737 13.994 20.5223L14.4404 19.9366L13.7177 19.7935L13.7022 19.7913C13.648 19.783 13.4713 19.7559 13.2177 19.7559C12.6782 19.7559 11.6481 19.8867 10.807 20.7595C10.1059 21.4859 10.0138 22.2584 10.0499 22.7579C9.99643 22.7623 9.94262 22.765 9.88689 22.7678L9.88686 22.7678L9.84225 22.7701H9.76518C8.70974 22.7701 8.21116 21.6502 8.19189 21.6064L7.89537 20.9069L7.41464 21.4967L7.41114 21.5013C7.35143 21.5789 6.69031 22.438 6.85685 23.5078C6.9701 24.2384 7.42827 24.8678 8.21445 25.3857C8.29997 25.4407 8.35965 25.4878 8.40241 25.5269C6.92424 26.008 6.09739 27.0608 5.22713 28.1688L5.21683 28.182L5.09089 28.3401C3.75538 30.0429 1.86443 30.0932 1.6384 30.0932L0.994141 30.073L1.1901 30.6873C1.21312 30.7622 1.78313 32.5044 3.49411 32.5044L3.57635 32.5021C3.75773 32.4969 3.91986 32.472 4.06412 32.4442C3.99363 33.3942 3.64448 35.1506 2.07213 35.8045L1.59188 36.0031L1.85174 36.4565L1.85229 36.4574C1.88416 36.5105 2.46876 37.4851 3.7817 37.4851C4.35923 37.4832 4.80847 37.3387 5.14446 37.164C5.19522 37.5938 5.30095 38.146 5.50724 38.7632C5.97853 40.168 5.55313 41.1597 5.52425 41.2271L5.52322 41.2295L5.28685 41.7275L5.82068 41.8692C5.85592 41.8782 6.1844 41.961 6.57255 41.961C6.75394 41.961 6.9217 41.9413 7.07348 41.9055C7.47808 41.8099 7.79105 41.6301 8.02883 41.4253C8.17356 41.8721 8.42215 42.3767 8.85354 42.8235C9.58708 43.579 10.642 43.9599 12.0203 43.9599L12.8554 43.9486L12.3934 43.2424ZM5.41717 25.0499C5.09669 25.0499 4.72592 25.1591 4.37348 25.5221C3.27293 26.643 2.24851 26.7056 2.24851 26.7056C2.43319 27.1189 2.97406 27.4809 3.5328 27.4809C3.66249 27.4809 3.79266 27.4621 3.91813 27.4174C4.26803 27.2991 4.51497 26.9936 4.80963 26.6291C5.15449 26.2024 5.56471 25.6949 6.28182 25.3121C6.28182 25.3121 5.90918 25.0499 5.41717 25.0499ZM4.06428 27.8509C3.8951 27.9088 3.71607 27.9361 3.5328 27.9361C2.8204 27.9361 2.10471 27.4988 1.83169 26.8934L1.56055 26.2861L2.22125 26.2471C2.2518 26.2461 3.10047 26.1684 4.04783 25.1996C4.43692 24.8018 4.90872 24.5938 5.41717 24.5938C6.01335 24.5938 6.45931 24.8803 6.53711 24.9303L6.54451 24.935L7.15399 25.3644L6.49752 25.717C5.86424 26.0547 5.49752 26.507 5.17187 26.9086L5.16436 26.9179L5.15469 26.9298C4.83821 27.3209 4.53644 27.6939 4.06428 27.8509ZM6.51585 33.241C6.44489 31.5199 6.88614 30.1251 7.57645 28.975C7.19159 30.1726 7.24375 31.639 8.55483 33.0084C8.55483 33.0084 5.94772 29.8798 9.59288 26.6725C10.6279 25.8055 11.7323 25.1741 12.5796 24.6897L12.5796 24.6897C12.9252 24.4921 13.2281 24.319 13.4659 24.1643C10.4994 25.1341 9.05059 24.0664 9.05059 24.0664C9.99701 24.8893 11.2244 24.8752 11.9852 24.7565L11.9487 24.7744C11.7539 24.8697 11.5497 24.9696 11.3335 25.087C8.8302 26.4484 6.58305 28.6888 6.19771 31.7911V31.7675C5.61642 34.8138 4.32227 35.5957 4.32227 35.5957C5.35186 35.0868 6.00035 33.7367 6.15824 33.2504C6.33023 35.9281 7.63425 37.7857 9.15914 39.5746C9.95049 40.502 10.2291 41.4035 10.2291 41.4035C10.2291 41.4035 10.0745 40.3819 9.38752 39.5506C7.96696 37.8384 6.61547 35.7059 6.51585 33.241ZM16.4967 20.7808L19.0037 21.7732L21.5117 20.7808C21.2993 20.2752 20.3162 19.845 19.0037 19.8435C17.6931 19.845 16.71 20.2752 16.4967 20.7808ZM19.1879 25.7713L20.873 24.8816L21.4745 21.3914L19.1879 22.1691V25.7713ZM22.6874 26.2859L21.9167 25.8377L21.1249 25.3834L19.0098 26.5372L19.0037 26.5325L18.9999 26.5372L16.8844 25.3834L16.0926 25.8377L15.3205 26.2859H15.3116L15.1161 26.3993C15.5517 26.5198 15.883 26.7354 16.1635 27.0221C16.1681 27.0265 16.1723 27.0312 16.1765 27.036C16.1827 27.043 16.1891 27.0501 16.1969 27.0565C16.2589 27.1233 16.32 27.1958 16.3797 27.2693L16.3822 27.2723C16.3953 27.288 16.4073 27.3025 16.4206 27.3211C16.4751 27.3936 16.5296 27.4708 16.5832 27.5494C16.5898 27.5582 16.5963 27.568 16.603 27.5781C16.6081 27.5859 16.6134 27.5939 16.6189 27.6016C16.6823 27.6981 16.7425 27.7975 16.8021 27.9001C17.3501 28.8473 18.226 29.4131 19.0037 29.4145C19.7824 29.4131 20.6578 28.8473 21.2067 27.9001C21.2673 27.7946 21.3289 27.693 21.3923 27.5974C21.4017 27.5837 21.412 27.5696 21.421 27.5555C21.4745 27.4741 21.5314 27.395 21.5906 27.3182C21.5982 27.3081 21.6057 27.2986 21.6127 27.2895L21.6263 27.2721C21.6874 27.1958 21.7509 27.1224 21.8148 27.0541C21.8193 27.0498 21.8235 27.0454 21.8276 27.0413C21.8335 27.0352 21.8392 27.0293 21.8453 27.024C22.1244 26.7378 22.4567 26.5198 22.8918 26.3993L22.6982 26.2859H22.6874ZM24.6413 30.4831C24.6413 29.9921 24.7842 29.4983 24.9566 29.0421H21.0027C20.397 29.6438 19.8162 29.8669 19.2969 29.9187C19.2029 29.9281 19.1076 29.9342 19.0112 29.9342H18.9981C18.9013 29.9342 18.8054 29.9281 18.7114 29.9187C18.6207 29.9107 18.5258 29.8961 18.4304 29.874C18.3966 30.01 18.3533 30.292 18.4765 30.5613C18.5869 30.8042 18.8101 30.9854 19.1353 31.106L19.2448 31.1483L19.2467 31.2665C19.2467 31.3018 19.2725 32.0686 20.1057 32.2814L20.1381 32.2478L20.1382 32.2478L20.1384 32.2475C20.2613 32.1203 20.3725 32.005 20.4572 31.9077C20.2871 31.5056 20.3759 31.0961 20.6235 30.8946C20.6127 30.9369 20.5042 31.943 21.3082 32.3167L21.4412 32.3794L21.4017 32.5215C21.389 32.5634 21.1202 33.5369 22.0948 33.899L22.2668 33.9644L22.1907 34.1315C22.1733 34.1696 21.7922 35.0518 22.6916 35.5537H24.6427V34.0021C23.9491 33.9168 23.655 33.3581 23.5793 32.9626C23.2569 32.9075 23.0074 32.7673 22.8354 32.5399C22.47 32.0572 22.7125 31.611 22.7714 31.5026C22.7784 31.4897 22.7828 31.4816 22.7833 31.4788C22.7828 31.4835 22.7833 32.0098 23.1075 32.3346C23.2682 32.4909 23.459 32.6124 23.7461 32.6402L23.8885 32.6529L23.9007 32.7979C23.9035 32.8289 23.9816 33.5421 24.6427 33.6532L24.6413 30.4831ZM22.7367 41.7197L22.5187 42.857C23.8194 42.5364 24.6451 41.553 24.6451 40.1445L24.6427 35.8959H13.367V40.1445C13.367 41.8825 14.6226 42.9705 16.4751 42.9705C18.0225 42.9705 18.4304 43.0307 19.0061 43.6027C19.4027 43.2063 19.7307 43.058 20.4045 43.0034L20.42 42.937L20.7762 41.8373C20.756 41.8119 20.1752 41.151 20.1752 41.151C19.9445 41.2277 19.7504 41.24 19.4262 41.24C19.092 41.24 18.7156 41.2018 18.3073 41.1246C18.2659 41.1152 18.2279 41.1114 18.1893 41.1114C18.1391 41.1114 18.1362 41.1152 18.1226 41.1402L18.0521 41.2564L17.9229 41.4706L17.679 41.4146L16.5972 41.159L16.4488 41.4042L16.4708 41.4306L16.6024 41.5761L16.5437 41.7653C16.4647 42.0129 16.2063 42.3025 16.1273 42.3815L15.8571 42.6725L15.6109 42.3608L15.4257 42.1278C15.2307 41.9094 15.1861 41.5761 15.2956 41.2254C15.2928 41.2277 15.2885 41.2291 15.2843 41.2305L14.9793 41.3567L14.8421 41.0578L14.7458 40.8464C14.5794 40.4731 14.6405 39.9284 15.0883 39.5989L15.9591 39.1065L16.788 39.2694C16.7968 39.234 16.8076 39.1582 16.819 39.0784L16.819 39.0783L16.819 39.0783C16.8332 38.9784 16.8483 38.8723 16.8613 38.832C16.8556 38.8314 16.8501 38.8305 16.8446 38.8296L16.8446 38.8296C16.8345 38.828 16.8246 38.8264 16.8139 38.8264L16.3364 39.0048L15.8755 38.687C15.8755 38.687 15.6955 38.5124 15.8585 38.3391L16.3045 37.6622L15.1743 36.241L16.9116 36.9556L17.0268 36.8125L17.2612 36.531L17.5277 36.7842C17.6029 36.8572 17.6461 36.9466 17.6668 37.0361C18.1452 37.223 19.0037 37.7738 19.0794 38.6696L18.811 38.7774V38.7835C18.8731 38.8565 18.9233 38.8862 18.9389 38.8895L20.1794 39.0119C20.1997 39.0079 20.2235 39.0005 20.2498 38.9923L20.2499 38.9923C20.2639 38.9879 20.2787 38.9833 20.2941 38.9789C20.4482 38.9266 20.6785 38.8509 20.9534 38.8509C21.1771 38.8509 21.3923 38.9017 21.6009 38.9991C21.6771 38.9704 21.7711 38.9488 21.8801 38.9417L21.9393 38.9403C22.6026 38.9403 22.9334 39.436 23.1979 39.8321L23.1987 39.8333C23.2428 39.9025 23.2861 39.9666 23.3321 40.031C23.5643 40.3587 23.8669 40.8375 23.8791 40.8586L24.0154 41.0728L23.8486 41.2677C23.7198 41.4174 23.5257 41.5925 23.193 41.5925C23.1249 41.5925 23.0502 41.5845 22.9684 41.569C22.8979 41.5558 22.8335 41.5351 22.7715 41.5092C22.7645 41.5577 22.755 41.6132 22.7459 41.6659L22.7459 41.666L22.7367 41.7197ZM15.6325 40.6016L15.5738 40.4547C15.5319 40.3587 15.5376 40.2551 15.6184 40.1986L16.0926 39.8705L16.8848 40.023C16.8848 40.023 16.7415 39.8432 16.7556 39.6027L15.999 39.4421L15.2857 39.8771C14.9793 40.1064 14.9577 40.4811 15.0587 40.7033L15.1537 40.9118C15.1537 40.9118 15.5935 40.7301 15.6325 40.6016ZM22.1564 42.9262L22.3993 41.6556C22.4266 41.5168 22.452 41.3308 22.452 41.3308C22.4376 41.3161 22.4201 41.2989 22.4002 41.2795L22.4002 41.2795C22.2908 41.1723 22.1109 40.9961 22.0027 40.7885C21.912 40.6142 21.8952 40.4837 21.8761 40.3362C21.8591 40.2041 21.8402 40.0584 21.7649 39.8555C21.7649 39.8555 21.8138 39.7557 21.9261 39.7557C21.944 39.7557 21.9628 39.7575 21.9816 39.7627C22.1297 39.8049 22.2308 40.0563 22.3449 40.3402C22.4994 40.7245 22.6779 41.1684 23.0295 41.2334C23.0896 41.2456 23.1446 41.2494 23.193 41.2494C23.3702 41.2494 23.4755 41.174 23.5887 41.0394C23.5887 41.0394 23.2814 40.5555 23.0516 40.2288C23.0031 40.1609 22.9564 40.0908 22.9098 40.0209L22.9097 40.0209C22.6622 39.6498 22.4186 39.2844 21.9393 39.2844C21.9261 39.2844 21.9097 39.2844 21.8956 39.2863C21.7086 39.2957 21.5925 39.3875 21.5925 39.3875C21.3627 39.2425 21.1475 39.1931 20.9534 39.1931C20.7345 39.1931 20.5454 39.2551 20.3998 39.3028L20.3998 39.3028C20.3088 39.3327 20.2348 39.3569 20.1813 39.3569H20.1762L18.906 39.2308C18.7072 39.2124 18.5498 39.0119 18.4934 38.9332C18.4793 38.9121 18.4718 38.8989 18.4718 38.8989V38.8988C18.4718 38.8645 18.4718 38.8292 18.4694 38.7972C18.4266 37.7568 17.6221 37.3115 17.3355 37.3044C17.3355 37.3044 17.3693 37.1067 17.2923 37.0309L17.0112 37.3717L16.0926 36.909L16.7486 37.6773L16.1931 38.3015C16.1231 38.373 16.132 38.4691 16.1612 38.5096L16.4008 38.7223L16.7053 38.5373C16.7204 38.526 16.7486 38.5227 16.7819 38.5227C16.8209 38.5227 16.8688 38.5274 16.9204 38.5324L16.9204 38.5324C16.9803 38.5381 17.0449 38.5444 17.1057 38.5444C17.2298 38.5444 17.3369 38.518 17.3501 38.4013C17.3386 38.5179 17.2979 38.6603 17.2533 38.8169C17.15 39.1789 17.0252 39.6164 17.1889 39.9844L17.3632 40.3827L16.2401 40.2203L15.7143 41.1096C15.5517 41.4057 15.5263 41.7258 15.6823 41.9004L15.8792 42.1471C15.8792 42.1471 16.1551 41.8543 16.2166 41.6608L16.1273 41.5629C16.0521 41.48 16.0559 41.4057 16.102 41.3167L16.4318 40.7697L17.7575 41.0822L17.828 40.9627C17.9177 40.8125 18.0474 40.7683 18.1893 40.7683C18.2481 40.7683 18.3078 40.7753 18.3703 40.7852C18.6165 40.8342 19.0211 40.8987 19.4262 40.8987C19.8707 40.8987 20.3124 40.8196 20.5469 40.5555C20.7932 40.9212 21.1688 41.1291 21.4662 41.2938C21.7491 41.4506 21.9614 41.5681 21.9242 41.7451L21.6677 42.9662C21.8368 42.9596 22.0004 42.9483 22.1564 42.9262ZM20.7603 42.9827C20.9017 42.977 21.0591 42.9747 21.2302 42.9747C21.2302 42.9747 21.6385 41.7794 21.6616 41.7418C21.4332 41.641 20.9581 41.3882 20.7748 41.2729C20.8143 41.3317 20.8718 41.3931 20.9296 41.4548L20.9297 41.4548C21.0501 41.5834 21.1715 41.713 21.1324 41.8218L20.7603 42.9827ZM15.7509 30.4954L15.6978 32.5135L15.9271 32.5488L16.4868 30.6117L16.203 30.0161L15.7509 30.4954ZM16.3233 33.4564C16.2298 33.3976 16.0968 33.294 16.023 33.1387C15.9384 32.9598 15.8172 32.876 15.64 32.876C15.4093 32.876 15.1631 33.0149 15.0569 33.0798C14.9723 33.5779 15.3388 34.0294 15.5846 34.1202C15.8068 34.2012 16.0775 34.2181 16.2161 34.2181L16.2211 34.2025C16.2255 34.1886 16.2307 34.1726 16.2354 34.1541C16.2476 34.1132 16.2589 34.0722 16.2683 34.0275C16.3064 33.8279 16.32 33.6024 16.3233 33.4564ZM19.6907 34.8202C20.0159 34.5929 20.9116 33.9376 21.2593 33.681C21.0065 33.311 20.9825 32.8722 21.0389 32.5634C20.873 32.4575 20.7471 32.3365 20.6461 32.2094C20.2749 32.615 19.5914 33.2824 19.3991 33.4701L19.3491 33.5191L19.2988 33.5704L16.6701 33.528C16.6682 33.7893 16.6259 34.011 16.585 34.1739C16.5785 34.2012 16.5709 34.2294 16.5634 34.2572L19.6907 34.8202ZM18.1 29.777C17.7504 29.649 17.3825 29.4164 17.0065 29.0421H13.0541C13.2237 29.4983 13.367 29.9921 13.367 30.4831V35.5537H22.1376C21.6992 35.1003 21.7057 34.5265 21.8171 34.1541C21.6898 34.0929 21.5845 34.0195 21.49 33.938C21.1475 34.1908 20.1019 34.9539 19.8279 35.146L19.7692 35.1851L16.328 34.5618H16.2575C16.1748 34.5618 16.054 34.5585 15.9224 34.543C15.8849 34.6983 15.7509 34.8047 15.5973 34.8047C15.5803 34.8047 15.5606 34.8033 15.5423 34.8C15.453 34.784 15.3745 34.7388 15.3228 34.663C15.2683 34.5891 15.2476 34.5006 15.2622 34.4097L15.2749 34.3353C14.9206 34.0849 14.593 33.5252 14.7378 32.9353L14.7519 32.8727L14.8022 32.8374C14.8092 32.8317 14.8684 32.7913 14.9577 32.7404L14.7077 32.7023C14.6142 32.6858 14.5512 32.5978 14.5653 32.5055C14.5818 32.4118 14.6696 32.3445 14.7617 32.3624L15.3576 32.4575L15.4121 30.3556L16.2988 29.4164L16.8519 30.5829L16.2683 32.6044L16.7946 32.6877C16.8872 32.7023 16.9502 32.7899 16.9361 32.8845C16.9224 32.9697 16.8505 33.0271 16.7678 33.0271C16.7589 33.0271 16.7495 33.0271 16.7406 33.0257L16.3125 32.9565C16.3151 32.9627 16.3184 32.9676 16.3217 32.9724C16.3254 32.9778 16.329 32.9832 16.3317 32.9904C16.3769 33.085 16.4788 33.1523 16.538 33.182L19.1611 33.2234C19.2725 33.1147 19.5479 32.8449 19.8312 32.5587C19.1851 32.3134 18.9511 31.7565 18.9116 31.3861C18.5507 31.2321 18.3012 31.0014 18.1635 30.702C17.9953 30.3306 18.0549 29.9578 18.1 29.777ZM18.8209 22.1691L16.5324 21.3914L17.1358 24.8816L18.8209 25.7713V22.1691ZM19.0089 19.2871C20.639 19.2871 22.116 20.078 22.116 20.9569L22.0845 21.173L21.4332 24.916L22.0845 25.2963L23.7786 26.2859H23.7724C23.7724 26.2859 24.1535 26.4817 24.3269 26.6022C24.975 27.0504 25.1103 27.7043 24.7362 27.9745C24.6427 27.4411 24.2226 26.8842 23.4355 26.8842C22.8678 26.8842 22.4365 27.1756 22.0845 27.6172C21.9961 27.7283 21.9116 27.8469 21.8307 27.9745C21.733 28.1355 21.6348 28.2767 21.5375 28.4127H25.8965C25.5746 29.0577 25.2705 29.7408 25.2705 30.4831V40.1445C25.2705 42.4832 23.4778 43.5994 21.5347 43.5994C21.421 43.5994 21.3148 43.599 21.2152 43.5986H21.215C19.9986 43.5941 19.7679 43.5933 19.0061 44.3573C18.2408 43.5933 18.0102 43.5941 16.7945 43.5986C16.6949 43.599 16.5887 43.5994 16.4751 43.5994C14.5334 43.5994 12.7383 42.4832 12.7383 40.1445V30.4831C12.7383 29.7408 12.4338 29.0577 12.1133 28.4127H16.4708C16.3736 28.2767 16.2749 28.1355 16.1771 27.9745C16.0977 27.8469 16.0127 27.7283 15.9224 27.6172C15.5738 27.1775 15.141 26.8842 14.5738 26.8842C13.7857 26.8842 13.3651 27.4411 13.273 27.9745C12.899 27.7043 13.0357 27.0504 13.68 26.6022C13.8562 26.4817 14.2368 26.2859 14.2368 26.2859H14.2307L15.9224 25.2963L16.5761 24.916L15.9253 21.173L15.8928 20.9569C15.8928 20.078 17.3698 19.2871 18.9999 19.2871H19.0089ZM17.767 23.3153C18.0221 23.5179 18.1801 23.5686 18.2128 23.5791L18.2181 23.5808L18.219 23.5812L18.3299 23.6325V23.0535L17.2891 22.6152C17.2891 22.6152 17.298 22.9509 17.767 23.3153ZM18.1465 26.9629V27.5782C18.3589 27.3197 18.7672 27.3724 18.7672 27.3724V28.2594C18.7672 28.2594 18.7536 28.6958 18.5985 28.8845H19.4843C19.3312 28.6958 19.3161 28.2594 19.3161 28.2594V27.3724C19.3161 27.3724 19.7259 27.3197 19.9364 27.5782V26.9629H18.1465ZM20.7206 22.6152C20.7206 22.6152 20.7116 22.9509 20.2412 23.3153C19.9853 23.5188 19.8275 23.569 19.7955 23.5792C19.7922 23.5803 19.7902 23.5809 19.7896 23.5812L19.6797 23.6325V23.0535L20.7206 22.6152ZM16.8557 37.846C16.8609 37.7827 16.914 37.7327 16.9784 37.7388C17.0442 37.7412 17.0902 37.7992 17.0883 37.8611C17.0822 37.9258 17.0272 37.974 16.9647 37.9688C16.8994 37.9674 16.8515 37.9116 16.8557 37.846Z" fill="black"/>
</g>
<path fill-rule="evenodd" clip-rule="evenodd" d="M128.016 27.4628V26.5H124.981V27.4628C121.172 27.5466 118.891 29.1582 118.891 32.0047C118.891 34.8513 121.172 36.3373 124.981 36.4211V37.5H128.016V36.4211C131.847 36.3373 134.063 34.8203 134.063 31.9737C134.063 29.1272 131.847 27.5466 128.016 27.4628ZM124.981 34.2862C122.888 34.2024 121.967 33.3443 121.967 32.0047C121.967 30.6652 122.888 29.7024 124.981 29.6187V34.2862ZM128.016 34.2862V29.6187C130.13 29.7024 130.997 30.6652 130.997 32.0047C130.997 33.3443 130.13 34.2024 128.016 34.2862ZM104.974 32.0328C104.974 29.0637 107.42 26.7637 111.497 26.7637C115.554 26.7637 118 29.0637 118 32.0328C118 35.0019 115.554 37.3019 111.497 37.3019C107.42 37.3019 104.974 35.0019 104.974 32.0328ZM108.173 32.0328C108.173 33.6637 109.469 34.8765 111.497 34.8765C113.505 34.8765 114.822 33.6637 114.822 32.0328C114.822 30.4019 113.505 29.2101 111.497 29.2101C109.469 29.2101 108.173 30.4019 108.173 32.0328ZM44.0059 27.0355L44 27.0355V29.9704H44.0059V30H48V37L49.718 36.9989L51.0014 37.0069V30H55V29.9704H55.0109L55 28.8103V27H54.983L54.983 26.9998L54.9098 27H44.0059V27.0355ZM59.0342 32.8274L64.2615 27.0355H66.9379V36.9883L63.9805 36.999L63.9749 31.1174L63.906 31.1965L58.6788 36.9883H56.0024V27.0355H59.0342V32.8274ZM71.9665 33.4691H76.9962V36.9883H79.977V27.0355H76.9962V30.9505H71.9665V27.0355H69.0018V36.9883H71.9665V33.4691ZM90.3546 36.7583C89.7691 36.9256 89.1418 36.9883 88.4518 36.9883H81.9628V27.0355H84.9947V29.7119H88.4518C89.2045 29.7119 89.9991 29.7328 90.6682 29.9837C92.0691 30.5065 92.9473 31.6565 92.9473 33.3083C92.9473 35.0438 91.9228 36.3193 90.3546 36.7583ZM87.9291 32.0538H84.9947V34.5838H87.9291C88.4518 34.5838 88.7864 34.5838 89.1209 34.4374C89.6018 34.2283 89.8946 33.7892 89.8946 33.2665C89.8946 32.7647 89.6018 32.3465 89.1 32.1792C88.7445 32.0538 88.3473 32.0538 87.9291 32.0538ZM96.9971 33.2246H97.6059L101.223 36.9883H105.259L100.22 31.8028L105.071 27.0355H101.265L97.6059 30.7783H96.9971V27.0355H93.9653V36.9883H96.9971V33.2246ZM144.003 26.5V27.4622C147.833 27.5459 150.05 29.1265 150.05 31.9731C150.05 34.8196 147.833 36.3367 144.003 36.4204V37.4993H140.968V36.4204C137.158 36.3367 134.877 34.8506 134.877 32.0041C134.877 29.1576 137.158 27.5459 140.968 27.4622V26.5H144.003ZM137.954 32.0041C137.954 33.3436 138.875 34.2018 140.968 34.2855V29.618C138.875 29.7017 137.954 30.6645 137.954 32.0041ZM144.003 29.618V34.2855C146.117 34.2018 146.983 33.3436 146.983 32.0041C146.983 30.6645 146.117 29.7017 144.003 29.618Z" fill="black"/>
<g filter="url(#filter0_i_1_7211)">
<rect width="85" height="64" transform="translate(199)" fill="white" fill-opacity="0.01"/>
<path d="M203.278 27.6782H204.808C205.341 27.6782 205.834 27.7692 206.287 27.9512C206.744 28.1289 207.142 28.3828 207.48 28.7129C207.823 29.043 208.09 29.4365 208.28 29.8936C208.471 30.3464 208.566 30.8478 208.566 31.3979C208.566 31.9481 208.471 32.4517 208.28 32.9087C208.09 33.3657 207.823 33.7614 207.48 34.0957C207.142 34.4258 206.744 34.6818 206.287 34.8638C205.834 35.0415 205.341 35.1304 204.808 35.1304H203.278C202.745 35.1304 202.252 35.0415 201.799 34.8638C201.347 34.6818 200.949 34.4258 200.606 34.0957C200.267 33.7656 200.003 33.3742 199.812 32.9214C199.626 32.4644 199.533 31.9608 199.533 31.4106C199.533 30.8605 199.626 30.359 199.812 29.9062C200.003 29.4492 200.267 29.0557 200.606 28.7256C200.949 28.3913 201.347 28.1331 201.799 27.9512C202.252 27.7692 202.745 27.6782 203.278 27.6782ZM203.278 28.6431C202.724 28.6431 202.254 28.7594 201.869 28.9922C201.484 29.2207 201.192 29.5423 200.993 29.957C200.794 30.3717 200.695 30.8563 200.695 31.4106C200.695 31.8296 200.75 32.2083 200.86 32.5469C200.974 32.8854 201.141 33.1753 201.361 33.4165C201.581 33.6577 201.852 33.8439 202.174 33.9751C202.495 34.1063 202.864 34.1719 203.278 34.1719H204.821C205.371 34.1719 205.836 34.0576 206.217 33.8291C206.602 33.5964 206.894 33.2726 207.093 32.8579C207.296 32.439 207.398 31.9523 207.398 31.3979C207.398 30.9832 207.341 30.6066 207.227 30.2681C207.112 29.9295 206.945 29.6396 206.725 29.3984C206.509 29.1572 206.241 28.971 205.919 28.8398C205.602 28.7087 205.236 28.6431 204.821 28.6431H203.278ZM204.637 26.377V36.3809H203.462V26.377H204.637ZM211.207 34.1401L214.374 29.1318H215.555V36H214.374V30.9917L211.207 36H210.039V29.1318H211.207V34.1401ZM222.099 32.1089V33.061H218.468V32.1089H222.099ZM218.716 29.1318V36H217.542V29.1318H218.716ZM223.051 29.1318V36H221.871V29.1318H223.051ZM227.742 29.1318V36H226.562V29.1318H227.742ZM230.046 29.1318V30.084H224.302V29.1318H230.046ZM233.544 36.127C233.066 36.127 232.632 36.0465 232.243 35.8857C231.858 35.7207 231.525 35.4901 231.246 35.1938C230.971 34.8976 230.759 34.5464 230.611 34.1401C230.463 33.7339 230.389 33.2896 230.389 32.8071V32.5405C230.389 31.9819 230.472 31.4847 230.637 31.0488C230.802 30.6087 231.026 30.2363 231.31 29.9316C231.593 29.627 231.915 29.3963 232.274 29.2397C232.634 29.0832 233.007 29.0049 233.392 29.0049C233.882 29.0049 234.306 29.0895 234.661 29.2588C235.021 29.4281 235.315 29.665 235.543 29.9697C235.772 30.2702 235.941 30.6257 236.051 31.0361C236.161 31.4424 236.216 31.8867 236.216 32.3691V32.896H231.087V31.9375H235.042V31.8486C235.025 31.5439 234.962 31.2477 234.852 30.96C234.746 30.6722 234.576 30.4352 234.344 30.249C234.111 30.0628 233.794 29.9697 233.392 29.9697C233.125 29.9697 232.88 30.0269 232.655 30.1411C232.431 30.2511 232.238 30.4162 232.078 30.6362C231.917 30.8563 231.792 31.125 231.703 31.4424C231.614 31.7598 231.57 32.1258 231.57 32.5405V32.8071C231.57 33.133 231.614 33.4398 231.703 33.7275C231.796 34.0111 231.93 34.2607 232.103 34.4766C232.281 34.6924 232.494 34.8617 232.744 34.9844C232.998 35.1071 233.286 35.1685 233.607 35.1685C234.022 35.1685 234.373 35.0838 234.661 34.9146C234.949 34.7453 235.201 34.5189 235.417 34.2354L236.127 34.8003C235.979 35.0246 235.791 35.2383 235.562 35.4414C235.334 35.6445 235.053 35.8096 234.718 35.9365C234.388 36.0635 233.997 36.127 233.544 36.127ZM238.381 29.1318L239.885 31.6328L241.409 29.1318H242.786L240.539 32.5215L242.856 36H241.498L239.911 33.4229L238.324 36H236.959L239.27 32.5215L237.029 29.1318H238.381ZM248.537 29.1318V36H247.363V29.1318H248.537ZM253.044 29.1318L249.788 33.0674H248.144L247.966 32.0391H249.312L251.616 29.1318H253.044ZM251.781 36L249.254 32.8896L250.01 32.0391L253.272 36H251.781ZM256.224 35.2891L258.135 29.1318H259.392L256.637 37.0601C256.573 37.2293 256.489 37.4113 256.383 37.606C256.281 37.8049 256.15 37.9932 255.989 38.1709C255.828 38.3486 255.634 38.4925 255.405 38.6025C255.181 38.7168 254.912 38.7739 254.599 38.7739C254.506 38.7739 254.388 38.7612 254.244 38.7358C254.1 38.7104 253.998 38.6893 253.939 38.6724L253.933 37.7202C253.966 37.7244 254.019 37.7287 254.091 37.7329C254.167 37.7414 254.22 37.7456 254.25 37.7456C254.517 37.7456 254.743 37.7096 254.929 37.6377C255.115 37.57 255.272 37.4536 255.399 37.2886C255.53 37.1278 255.642 36.9056 255.735 36.6221L256.224 35.2891ZM254.821 29.1318L256.605 34.4639L256.91 35.7017L256.065 36.1333L253.539 29.1318H254.821ZM261.626 30.4521V38.6406H260.445V29.1318H261.524L261.626 30.4521ZM266.253 32.5088V32.6421C266.253 33.1414 266.194 33.6048 266.076 34.0322C265.957 34.4554 265.784 34.8236 265.555 35.1367C265.331 35.4499 265.054 35.6932 264.724 35.8667C264.394 36.0402 264.015 36.127 263.587 36.127C263.152 36.127 262.766 36.055 262.432 35.9111C262.098 35.7673 261.814 35.5578 261.582 35.2827C261.349 35.0076 261.163 34.6776 261.023 34.2925C260.888 33.9074 260.794 33.4736 260.744 32.9912V32.2803C260.794 31.7725 260.89 31.3175 261.029 30.9155C261.169 30.5135 261.353 30.1707 261.582 29.8872C261.814 29.5994 262.096 29.3815 262.426 29.2334C262.756 29.0811 263.137 29.0049 263.568 29.0049C264 29.0049 264.383 29.0895 264.717 29.2588C265.052 29.4238 265.333 29.6608 265.562 29.9697C265.79 30.2786 265.961 30.6489 266.076 31.0806C266.194 31.508 266.253 31.984 266.253 32.5088ZM265.073 32.6421V32.5088C265.073 32.166 265.037 31.8444 264.965 31.5439C264.893 31.2393 264.781 30.9727 264.628 30.7441C264.48 30.5114 264.29 30.3294 264.057 30.1982C263.824 30.0628 263.547 29.9951 263.226 29.9951C262.929 29.9951 262.671 30.0459 262.451 30.1475C262.235 30.249 262.051 30.3866 261.899 30.5601C261.747 30.7293 261.622 30.924 261.524 31.144C261.431 31.3599 261.361 31.5841 261.315 31.8169V33.4609C261.4 33.7572 261.518 34.0365 261.67 34.2988C261.823 34.557 262.026 34.7664 262.28 34.9272C262.534 35.0838 262.853 35.1621 263.238 35.1621C263.556 35.1621 263.829 35.0965 264.057 34.9653C264.29 34.8299 264.48 34.6458 264.628 34.4131C264.781 34.1803 264.893 33.9137 264.965 33.6133C265.037 33.3086 265.073 32.9849 265.073 32.6421ZM270.5 35.1621C270.779 35.1621 271.037 35.105 271.274 34.9907C271.511 34.8765 271.706 34.7199 271.858 34.521C272.011 34.3179 272.097 34.0872 272.119 33.8291H273.236C273.215 34.2354 273.077 34.6141 272.823 34.9653C272.574 35.3123 272.246 35.5938 271.839 35.8096C271.433 36.0212 270.987 36.127 270.5 36.127C269.984 36.127 269.533 36.036 269.148 35.854C268.767 35.672 268.45 35.4224 268.196 35.105C267.946 34.7876 267.758 34.4237 267.631 34.0132C267.508 33.5985 267.447 33.1605 267.447 32.6992V32.4326C267.447 31.9714 267.508 31.5355 267.631 31.125C267.758 30.7103 267.946 30.3442 268.196 30.0269C268.45 29.7095 268.767 29.4598 269.148 29.2778C269.533 29.0959 269.984 29.0049 270.5 29.0049C271.037 29.0049 271.507 29.1149 271.909 29.335C272.311 29.5508 272.626 29.847 272.855 30.2236C273.088 30.596 273.215 31.0192 273.236 31.4932H272.119C272.097 31.2096 272.017 30.9536 271.877 30.7251C271.742 30.4966 271.556 30.3146 271.319 30.1792C271.086 30.0396 270.813 29.9697 270.5 29.9697C270.14 29.9697 269.838 30.0417 269.592 30.1855C269.351 30.3252 269.159 30.5156 269.015 30.7568C268.875 30.9938 268.773 31.2583 268.71 31.5503C268.651 31.8381 268.621 32.1322 268.621 32.4326V32.6992C268.621 32.9997 268.651 33.2959 268.71 33.5879C268.769 33.8799 268.869 34.1444 269.008 34.3813C269.152 34.6183 269.345 34.8088 269.586 34.9526C269.831 35.0923 270.136 35.1621 270.5 35.1621ZM275.521 31.4932H277.584C278.138 31.4932 278.606 31.5905 278.987 31.7852C279.368 31.9756 279.655 32.2401 279.85 32.5786C280.049 32.9129 280.148 33.2938 280.148 33.7212C280.148 34.0386 280.093 34.3369 279.983 34.6162C279.873 34.8913 279.708 35.1325 279.488 35.3398C279.272 35.5472 279.004 35.7101 278.682 35.8286C278.365 35.9429 277.999 36 277.584 36H274.664V29.1318H275.838V35.0352H277.584C277.923 35.0352 278.193 34.9738 278.396 34.8511C278.6 34.7284 278.746 34.5697 278.834 34.375C278.923 34.1803 278.968 33.9772 278.968 33.7656C278.968 33.5583 278.923 33.3551 278.834 33.1562C278.746 32.9574 278.6 32.7923 278.396 32.6611C278.193 32.5257 277.923 32.458 277.584 32.458H275.521V31.4932ZM282.592 29.1318V36H281.418V29.1318H282.592Z" fill="black" fill-opacity="0.8"/>
</g>
<rect width="76" height="64" transform="translate(308)" fill="white" fill-opacity="0.01"/>
<path d="M314.652 33.061H315.871C315.808 33.645 315.64 34.1676 315.37 34.6289C315.099 35.0902 314.716 35.4562 314.221 35.7271C313.726 35.9937 313.108 36.127 312.367 36.127C311.826 36.127 311.333 36.0254 310.888 35.8223C310.448 35.6191 310.069 35.3314 309.752 34.959C309.435 34.5824 309.189 34.1317 309.016 33.6069C308.846 33.078 308.762 32.4897 308.762 31.8423V30.9219C308.762 30.2744 308.846 29.6883 309.016 29.1636C309.189 28.6346 309.437 28.1818 309.758 27.8052C310.084 27.4285 310.476 27.1387 310.933 26.9355C311.39 26.7324 311.904 26.6309 312.475 26.6309C313.173 26.6309 313.764 26.762 314.246 27.0244C314.729 27.2868 315.103 27.6507 315.37 28.1162C315.64 28.5775 315.808 29.1128 315.871 29.7222H314.652C314.593 29.2905 314.483 28.9202 314.322 28.6113C314.161 28.2982 313.933 28.057 313.637 27.8877C313.34 27.7184 312.953 27.6338 312.475 27.6338C312.065 27.6338 311.703 27.7121 311.39 27.8687C311.081 28.0252 310.82 28.2474 310.609 28.5352C310.402 28.8229 310.245 29.1678 310.139 29.5698C310.033 29.9718 309.98 30.4183 309.98 30.9092V31.8423C309.98 32.2951 310.027 32.7204 310.12 33.1182C310.217 33.516 310.363 33.8651 310.558 34.1655C310.753 34.466 311 34.703 311.301 34.8765C311.601 35.0457 311.957 35.1304 312.367 35.1304C312.888 35.1304 313.302 35.0479 313.611 34.8828C313.92 34.7178 314.153 34.4808 314.31 34.1719C314.47 33.863 314.585 33.4927 314.652 33.061ZM320.162 29.1318V36H318.981V29.1318H320.162ZM322.466 29.1318V30.084H316.722V29.1318H322.466ZM327.57 34.8257V31.29C327.57 31.0192 327.515 30.7843 327.405 30.5854C327.299 30.3823 327.138 30.2257 326.922 30.1157C326.707 30.0057 326.44 29.9507 326.123 29.9507C325.826 29.9507 325.566 30.0015 325.342 30.103C325.122 30.2046 324.948 30.3379 324.821 30.5029C324.699 30.668 324.637 30.8457 324.637 31.0361H323.463C323.463 30.7907 323.526 30.5474 323.653 30.3062C323.78 30.0649 323.962 29.847 324.199 29.6523C324.44 29.4535 324.728 29.2969 325.062 29.1826C325.401 29.0641 325.778 29.0049 326.192 29.0049C326.692 29.0049 327.132 29.0895 327.513 29.2588C327.898 29.4281 328.198 29.6841 328.414 30.0269C328.634 30.3654 328.744 30.7907 328.744 31.3027V34.502C328.744 34.7305 328.763 34.9738 328.801 35.2319C328.844 35.4901 328.905 35.7122 328.985 35.8984V36H327.76C327.701 35.8646 327.654 35.6847 327.621 35.4604C327.587 35.2319 327.57 35.0203 327.57 34.8257ZM327.773 31.8359L327.786 32.6611H326.599C326.264 32.6611 325.966 32.6886 325.704 32.7437C325.441 32.7944 325.221 32.8727 325.043 32.9785C324.866 33.0843 324.73 33.2176 324.637 33.3784C324.544 33.535 324.498 33.7191 324.498 33.9307C324.498 34.1465 324.546 34.3433 324.644 34.521C324.741 34.6987 324.887 34.8405 325.082 34.9463C325.28 35.0479 325.524 35.0986 325.812 35.0986C326.171 35.0986 326.489 35.0225 326.764 34.8701C327.039 34.7178 327.257 34.5316 327.417 34.3115C327.583 34.0915 327.671 33.8778 327.684 33.6704L328.186 34.2354C328.156 34.4131 328.076 34.6099 327.944 34.8257C327.813 35.0415 327.638 35.2489 327.417 35.4478C327.202 35.6424 326.944 35.8053 326.643 35.9365C326.347 36.0635 326.013 36.127 325.64 36.127C325.175 36.127 324.766 36.036 324.415 35.854C324.068 35.672 323.797 35.4287 323.603 35.124C323.412 34.8151 323.317 34.4702 323.317 34.0894C323.317 33.7212 323.389 33.3975 323.533 33.1182C323.677 32.8346 323.884 32.5998 324.155 32.4136C324.426 32.2231 324.751 32.0793 325.132 31.9819C325.513 31.8846 325.938 31.8359 326.408 31.8359H327.773ZM332.673 33.0103L330.071 29.1318H331.486L333.264 31.9756H334.635L334.463 33.0103H332.673ZM333.314 32.8896L331.321 36H329.836L332.572 32.0391L333.314 32.8896ZM335.238 29.1318V36H334.063V29.1318H335.238ZM339.243 29.1318L336.641 33.0103H334.851L334.667 31.9756H336.044L337.821 29.1318H339.243ZM337.986 36L335.987 32.8896L336.742 32.0391L339.472 36H337.986ZM341.827 34.1401L344.994 29.1318H346.175V36H344.994V30.9917L341.827 36H340.659V29.1318H341.827V34.1401ZM349.234 30.4521V38.6406H348.054V29.1318H349.133L349.234 30.4521ZM353.862 32.5088V32.6421C353.862 33.1414 353.803 33.6048 353.684 34.0322C353.566 34.4554 353.392 34.8236 353.164 35.1367C352.939 35.4499 352.662 35.6932 352.332 35.8667C352.002 36.0402 351.623 36.127 351.196 36.127C350.76 36.127 350.375 36.055 350.041 35.9111C349.706 35.7673 349.423 35.5578 349.19 35.2827C348.957 35.0076 348.771 34.6776 348.631 34.2925C348.496 33.9074 348.403 33.4736 348.352 32.9912V32.2803C348.403 31.7725 348.498 31.3175 348.638 30.9155C348.777 30.5135 348.961 30.1707 349.19 29.8872C349.423 29.5994 349.704 29.3815 350.034 29.2334C350.364 29.0811 350.745 29.0049 351.177 29.0049C351.608 29.0049 351.991 29.0895 352.326 29.2588C352.66 29.4238 352.941 29.6608 353.17 29.9697C353.398 30.2786 353.57 30.6489 353.684 31.0806C353.803 31.508 353.862 31.984 353.862 32.5088ZM352.681 32.6421V32.5088C352.681 32.166 352.645 31.8444 352.573 31.5439C352.501 31.2393 352.389 30.9727 352.237 30.7441C352.089 30.5114 351.898 30.3294 351.666 30.1982C351.433 30.0628 351.156 29.9951 350.834 29.9951C350.538 29.9951 350.28 30.0459 350.06 30.1475C349.844 30.249 349.66 30.3866 349.507 30.5601C349.355 30.7293 349.23 30.924 349.133 31.144C349.04 31.3599 348.97 31.5841 348.923 31.8169V33.4609C349.008 33.7572 349.126 34.0365 349.279 34.2988C349.431 34.557 349.634 34.7664 349.888 34.9272C350.142 35.0838 350.462 35.1621 350.847 35.1621C351.164 35.1621 351.437 35.0965 351.666 34.9653C351.898 34.8299 352.089 34.6458 352.237 34.4131C352.389 34.1803 352.501 33.9137 352.573 33.6133C352.645 33.3086 352.681 32.9849 352.681 32.6421ZM355.049 32.6421V32.4961C355.049 32.001 355.121 31.5418 355.265 31.1187C355.409 30.6912 355.616 30.321 355.887 30.0078C356.158 29.6904 356.486 29.445 356.871 29.2715C357.256 29.0938 357.687 29.0049 358.166 29.0049C358.648 29.0049 359.082 29.0938 359.467 29.2715C359.856 29.445 360.186 29.6904 360.457 30.0078C360.732 30.321 360.942 30.6912 361.085 31.1187C361.229 31.5418 361.301 32.001 361.301 32.4961V32.6421C361.301 33.1372 361.229 33.5964 361.085 34.0195C360.942 34.4427 360.732 34.813 360.457 35.1304C360.186 35.4435 359.858 35.689 359.473 35.8667C359.092 36.0402 358.661 36.127 358.178 36.127C357.696 36.127 357.262 36.0402 356.877 35.8667C356.492 35.689 356.162 35.4435 355.887 35.1304C355.616 34.813 355.409 34.4427 355.265 34.0195C355.121 33.5964 355.049 33.1372 355.049 32.6421ZM356.223 32.4961V32.6421C356.223 32.9849 356.263 33.3086 356.344 33.6133C356.424 33.9137 356.545 34.1803 356.706 34.4131C356.871 34.6458 357.076 34.8299 357.321 34.9653C357.567 35.0965 357.852 35.1621 358.178 35.1621C358.5 35.1621 358.781 35.0965 359.022 34.9653C359.268 34.8299 359.471 34.6458 359.632 34.4131C359.793 34.1803 359.913 33.9137 359.994 33.6133C360.078 33.3086 360.121 32.9849 360.121 32.6421V32.4961C360.121 32.1576 360.078 31.8381 359.994 31.5376C359.913 31.2329 359.791 30.9642 359.625 30.7314C359.465 30.4945 359.262 30.3083 359.016 30.1729C358.775 30.0374 358.491 29.9697 358.166 29.9697C357.844 29.9697 357.56 30.0374 357.315 30.1729C357.074 30.3083 356.871 30.4945 356.706 30.7314C356.545 30.9642 356.424 31.2329 356.344 31.5376C356.263 31.8381 356.223 32.1576 356.223 32.4961ZM365.999 32.9785H363.745L363.732 32.0391H365.573C365.937 32.0391 366.24 32.0031 366.481 31.9312C366.726 31.8592 366.91 31.7513 367.033 31.6074C367.156 31.4635 367.217 31.2858 367.217 31.0742C367.217 30.9092 367.181 30.7653 367.109 30.6426C367.042 30.5156 366.938 30.4119 366.798 30.3315C366.659 30.2469 366.485 30.1855 366.278 30.1475C366.075 30.1051 365.836 30.084 365.561 30.084H364.056V36H362.882V29.1318H365.561C365.996 29.1318 366.388 29.1699 366.735 29.2461C367.086 29.3223 367.384 29.4386 367.63 29.5952C367.88 29.7476 368.07 29.9422 368.201 30.1792C368.332 30.4162 368.398 30.6955 368.398 31.0171C368.398 31.2244 368.356 31.4212 368.271 31.6074C368.186 31.7936 368.062 31.9587 367.896 32.1025C367.731 32.2464 367.528 32.3649 367.287 32.458C367.046 32.5469 366.769 32.604 366.456 32.6294L365.999 32.9785ZM365.999 36H363.32L363.904 35.0479H365.999C366.324 35.0479 366.595 35.0076 366.811 34.9272C367.027 34.8426 367.188 34.7241 367.293 34.5718C367.403 34.4152 367.458 34.229 367.458 34.0132C367.458 33.7974 367.403 33.6133 367.293 33.4609C367.188 33.3044 367.027 33.1859 366.811 33.1055C366.595 33.0208 366.324 32.9785 365.999 32.9785H364.215L364.228 32.0391H366.456L366.881 32.3945C367.257 32.4242 367.577 32.5173 367.839 32.6738C368.102 32.8304 368.301 33.0293 368.436 33.2705C368.571 33.5075 368.639 33.7656 368.639 34.0449C368.639 34.3665 368.578 34.6501 368.455 34.8955C368.337 35.141 368.163 35.3462 367.935 35.5112C367.706 35.672 367.429 35.7948 367.103 35.8794C366.777 35.9598 366.409 36 365.999 36ZM371.489 29.1318V36H370.315V29.1318H371.489ZM375.996 29.1318L372.74 33.0674H371.096L370.918 32.0391H372.264L374.568 29.1318H375.996ZM374.733 36L372.207 32.8896L372.962 32.0391L376.225 36H374.733ZM378.516 34.1401L381.684 29.1318H382.864V36H381.684V30.9917L378.516 36H377.348V29.1318H378.516V34.1401Z" fill="black" fill-opacity="0.54"/>
<rect width="175" height="64" transform="translate(408)" fill="white" fill-opacity="0.01"/>
<path d="M409.46 26.7578H410.647L413.675 34.2925L416.696 26.7578H417.89L414.132 36H413.205L409.46 26.7578ZM409.073 26.7578H410.12L410.292 32.3945V36H409.073V26.7578ZM417.223 26.7578H418.271V36H417.052V32.3945L417.223 26.7578ZM423.095 36.127C422.617 36.127 422.183 36.0465 421.793 35.8857C421.408 35.7207 421.076 35.4901 420.797 35.1938C420.522 34.8976 420.31 34.5464 420.162 34.1401C420.014 33.7339 419.94 33.2896 419.94 32.8071V32.5405C419.94 31.9819 420.022 31.4847 420.188 31.0488C420.353 30.6087 420.577 30.2363 420.86 29.9316C421.144 29.627 421.465 29.3963 421.825 29.2397C422.185 29.0832 422.557 29.0049 422.942 29.0049C423.433 29.0049 423.856 29.0895 424.212 29.2588C424.572 29.4281 424.866 29.665 425.094 29.9697C425.323 30.2702 425.492 30.6257 425.602 31.0361C425.712 31.4424 425.767 31.8867 425.767 32.3691V32.896H420.638V31.9375H424.593V31.8486C424.576 31.5439 424.512 31.2477 424.402 30.96C424.297 30.6722 424.127 30.4352 423.895 30.249C423.662 30.0628 423.344 29.9697 422.942 29.9697C422.676 29.9697 422.43 30.0269 422.206 30.1411C421.982 30.2511 421.789 30.4162 421.628 30.6362C421.468 30.8563 421.343 31.125 421.254 31.4424C421.165 31.7598 421.121 32.1258 421.121 32.5405V32.8071C421.121 33.133 421.165 33.4398 421.254 33.7275C421.347 34.0111 421.48 34.2607 421.654 34.4766C421.832 34.6924 422.045 34.8617 422.295 34.9844C422.549 35.1071 422.837 35.1685 423.158 35.1685C423.573 35.1685 423.924 35.0838 424.212 34.9146C424.5 34.7453 424.751 34.5189 424.967 34.2354L425.678 34.8003C425.53 35.0246 425.342 35.2383 425.113 35.4414C424.885 35.6445 424.603 35.8096 424.269 35.9365C423.939 36.0635 423.548 36.127 423.095 36.127ZM428.312 30.4521V38.6406H427.132V29.1318H428.211L428.312 30.4521ZM432.94 32.5088V32.6421C432.94 33.1414 432.881 33.6048 432.762 34.0322C432.644 34.4554 432.47 34.8236 432.242 35.1367C432.017 35.4499 431.74 35.6932 431.41 35.8667C431.08 36.0402 430.701 36.127 430.274 36.127C429.838 36.127 429.453 36.055 429.119 35.9111C428.784 35.7673 428.501 35.5578 428.268 35.2827C428.035 35.0076 427.849 34.6776 427.709 34.2925C427.574 33.9074 427.481 33.4736 427.43 32.9912V32.2803C427.481 31.7725 427.576 31.3175 427.716 30.9155C427.855 30.5135 428.04 30.1707 428.268 29.8872C428.501 29.5994 428.782 29.3815 429.112 29.2334C429.442 29.0811 429.823 29.0049 430.255 29.0049C430.687 29.0049 431.069 29.0895 431.404 29.2588C431.738 29.4238 432.02 29.6608 432.248 29.9697C432.477 30.2786 432.648 30.6489 432.762 31.0806C432.881 31.508 432.94 31.984 432.94 32.5088ZM431.759 32.6421V32.5088C431.759 32.166 431.723 31.8444 431.651 31.5439C431.579 31.2393 431.467 30.9727 431.315 30.7441C431.167 30.5114 430.976 30.3294 430.744 30.1982C430.511 30.0628 430.234 29.9951 429.912 29.9951C429.616 29.9951 429.358 30.0459 429.138 30.1475C428.922 30.249 428.738 30.3866 428.585 30.5601C428.433 30.7293 428.308 30.924 428.211 31.144C428.118 31.3599 428.048 31.5841 428.001 31.8169V33.4609C428.086 33.7572 428.205 34.0365 428.357 34.2988C428.509 34.557 428.712 34.7664 428.966 34.9272C429.22 35.0838 429.54 35.1621 429.925 35.1621C430.242 35.1621 430.515 35.0965 430.744 34.9653C430.976 34.8299 431.167 34.6458 431.315 34.4131C431.467 34.1803 431.579 33.9137 431.651 33.6133C431.723 33.3086 431.759 32.9849 431.759 32.6421ZM434.127 32.6421V32.4961C434.127 32.001 434.199 31.5418 434.343 31.1187C434.487 30.6912 434.694 30.321 434.965 30.0078C435.236 29.6904 435.564 29.445 435.949 29.2715C436.334 29.0938 436.765 29.0049 437.244 29.0049C437.726 29.0049 438.16 29.0938 438.545 29.2715C438.934 29.445 439.264 29.6904 439.535 30.0078C439.81 30.321 440.02 30.6912 440.164 31.1187C440.307 31.5418 440.379 32.001 440.379 32.4961V32.6421C440.379 33.1372 440.307 33.5964 440.164 34.0195C440.02 34.4427 439.81 34.813 439.535 35.1304C439.264 35.4435 438.936 35.689 438.551 35.8667C438.17 36.0402 437.739 36.127 437.256 36.127C436.774 36.127 436.34 36.0402 435.955 35.8667C435.57 35.689 435.24 35.4435 434.965 35.1304C434.694 34.813 434.487 34.4427 434.343 34.0195C434.199 33.5964 434.127 33.1372 434.127 32.6421ZM435.301 32.4961V32.6421C435.301 32.9849 435.341 33.3086 435.422 33.6133C435.502 33.9137 435.623 34.1803 435.784 34.4131C435.949 34.6458 436.154 34.8299 436.399 34.9653C436.645 35.0965 436.931 35.1621 437.256 35.1621C437.578 35.1621 437.859 35.0965 438.101 34.9653C438.346 34.8299 438.549 34.6458 438.71 34.4131C438.871 34.1803 438.991 33.9137 439.072 33.6133C439.156 33.3086 439.199 32.9849 439.199 32.6421V32.4961C439.199 32.1576 439.156 31.8381 439.072 31.5376C438.991 31.2329 438.869 30.9642 438.704 30.7314C438.543 30.4945 438.34 30.3083 438.094 30.1729C437.853 30.0374 437.569 29.9697 437.244 29.9697C436.922 29.9697 436.639 30.0374 436.393 30.1729C436.152 30.3083 435.949 30.4945 435.784 30.7314C435.623 30.9642 435.502 31.2329 435.422 31.5376C435.341 31.8381 435.301 32.1576 435.301 32.4961ZM446.429 29.1318V30.103H442.957V29.1318H446.429ZM443.128 29.1318V36H441.954V29.1318H443.128ZM447.47 29.1318V36H446.289V29.1318H447.47ZM450.529 30.4521V38.6406H449.349V29.1318H450.428L450.529 30.4521ZM455.157 32.5088V32.6421C455.157 33.1414 455.097 33.6048 454.979 34.0322C454.861 34.4554 454.687 34.8236 454.458 35.1367C454.234 35.4499 453.957 35.6932 453.627 35.8667C453.297 36.0402 452.918 36.127 452.491 36.127C452.055 36.127 451.67 36.055 451.335 35.9111C451.001 35.7673 450.718 35.5578 450.485 35.2827C450.252 35.0076 450.066 34.6776 449.926 34.2925C449.791 33.9074 449.698 33.4736 449.647 32.9912V32.2803C449.698 31.7725 449.793 31.3175 449.933 30.9155C450.072 30.5135 450.256 30.1707 450.485 29.8872C450.718 29.5994 450.999 29.3815 451.329 29.2334C451.659 29.0811 452.04 29.0049 452.472 29.0049C452.903 29.0049 453.286 29.0895 453.621 29.2588C453.955 29.4238 454.236 29.6608 454.465 29.9697C454.693 30.2786 454.865 30.6489 454.979 31.0806C455.097 31.508 455.157 31.984 455.157 32.5088ZM453.976 32.6421V32.5088C453.976 32.166 453.94 31.8444 453.868 31.5439C453.796 31.2393 453.684 30.9727 453.532 30.7441C453.384 30.5114 453.193 30.3294 452.96 30.1982C452.728 30.0628 452.451 29.9951 452.129 29.9951C451.833 29.9951 451.575 30.0459 451.354 30.1475C451.139 30.249 450.955 30.3866 450.802 30.5601C450.65 30.7293 450.525 30.924 450.428 31.144C450.335 31.3599 450.265 31.5841 450.218 31.8169V33.4609C450.303 33.7572 450.421 34.0365 450.574 34.2988C450.726 34.557 450.929 34.7664 451.183 34.9272C451.437 35.0838 451.757 35.1621 452.142 35.1621C452.459 35.1621 452.732 35.0965 452.96 34.9653C453.193 34.8299 453.384 34.6458 453.532 34.4131C453.684 34.1803 453.796 33.9137 453.868 33.6133C453.94 33.3086 453.976 32.9849 453.976 32.6421ZM457.924 34.1401L461.092 29.1318H462.272V36H461.092V30.9917L457.924 36H456.756V29.1318H457.924V34.1401ZM465.548 32.7246H466.817L464.831 36H463.561L465.548 32.7246ZM466.532 29.1318H469.401V36H468.227V30.084H466.532C466.197 30.084 465.924 30.1411 465.713 30.2554C465.501 30.3654 465.347 30.5093 465.25 30.687C465.152 30.8647 465.104 31.0488 465.104 31.2393C465.104 31.4255 465.148 31.6053 465.237 31.7788C465.326 31.9481 465.465 32.0877 465.656 32.1978C465.846 32.3078 466.092 32.3628 466.392 32.3628H468.544V33.3276H466.392C465.999 33.3276 465.649 33.2747 465.345 33.1689C465.04 33.0632 464.782 32.9172 464.57 32.731C464.359 32.5405 464.198 32.3184 464.088 32.0645C463.978 31.8063 463.923 31.527 463.923 31.2266C463.923 30.9261 463.98 30.6489 464.094 30.395C464.213 30.1411 464.382 29.9189 464.602 29.7285C464.826 29.5381 465.099 29.3921 465.421 29.2905C465.747 29.1847 466.117 29.1318 466.532 29.1318ZM474.092 29.1318V36H472.911V29.1318H474.092ZM476.396 29.1318V30.084H470.651V29.1318H476.396ZM478.821 34.1401L481.988 29.1318H483.169V36H481.988V30.9917L478.821 36H477.653V29.1318H478.821V34.1401ZM486.444 32.7246H487.714L485.727 36H484.458L486.444 32.7246ZM487.428 29.1318H490.297V36H489.123V30.084H487.428C487.094 30.084 486.821 30.1411 486.609 30.2554C486.398 30.3654 486.243 30.5093 486.146 30.687C486.049 30.8647 486 31.0488 486 31.2393C486 31.4255 486.044 31.6053 486.133 31.7788C486.222 31.9481 486.362 32.0877 486.552 32.1978C486.743 32.3078 486.988 32.3628 487.289 32.3628H489.44V33.3276H487.289C486.895 33.3276 486.546 33.2747 486.241 33.1689C485.937 33.0632 485.678 32.9172 485.467 32.731C485.255 32.5405 485.094 32.3184 484.984 32.0645C484.874 31.8063 484.819 31.527 484.819 31.2266C484.819 30.9261 484.876 30.6489 484.991 30.395C485.109 30.1411 485.278 29.9189 485.499 29.7285C485.723 29.5381 485.996 29.3921 486.317 29.2905C486.643 29.1847 487.014 29.1318 487.428 29.1318ZM496.683 34.1401L499.851 29.1318H501.031V36H499.851V30.9917L496.683 36H495.515V29.1318H496.683V34.1401ZM510.718 29.1318V30.103H507.246V29.1318H510.718ZM507.417 29.1318V36H506.243V29.1318H507.417ZM511.759 29.1318V36H510.578V29.1318H511.759ZM517.694 34.8257V31.29C517.694 31.0192 517.639 30.7843 517.529 30.5854C517.423 30.3823 517.262 30.2257 517.046 30.1157C516.831 30.0057 516.564 29.9507 516.247 29.9507C515.95 29.9507 515.69 30.0015 515.466 30.103C515.246 30.2046 515.072 30.3379 514.945 30.5029C514.823 30.668 514.761 30.8457 514.761 31.0361H513.587C513.587 30.7907 513.65 30.5474 513.777 30.3062C513.904 30.0649 514.086 29.847 514.323 29.6523C514.564 29.4535 514.852 29.2969 515.187 29.1826C515.525 29.0641 515.902 29.0049 516.316 29.0049C516.816 29.0049 517.256 29.0895 517.637 29.2588C518.022 29.4281 518.322 29.6841 518.538 30.0269C518.758 30.3654 518.868 30.7907 518.868 31.3027V34.502C518.868 34.7305 518.887 34.9738 518.925 35.2319C518.968 35.4901 519.029 35.7122 519.109 35.8984V36H517.884C517.825 35.8646 517.778 35.6847 517.745 35.4604C517.711 35.2319 517.694 35.0203 517.694 34.8257ZM517.897 31.8359L517.91 32.6611H516.723C516.388 32.6611 516.09 32.6886 515.828 32.7437C515.565 32.7944 515.345 32.8727 515.167 32.9785C514.99 33.0843 514.854 33.2176 514.761 33.3784C514.668 33.535 514.622 33.7191 514.622 33.9307C514.622 34.1465 514.67 34.3433 514.768 34.521C514.865 34.6987 515.011 34.8405 515.206 34.9463C515.404 35.0479 515.648 35.0986 515.936 35.0986C516.295 35.0986 516.613 35.0225 516.888 34.8701C517.163 34.7178 517.381 34.5316 517.542 34.3115C517.707 34.0915 517.795 33.8778 517.808 33.6704L518.31 34.2354C518.28 34.4131 518.2 34.6099 518.068 34.8257C517.937 35.0415 517.762 35.2489 517.542 35.4478C517.326 35.6424 517.068 35.8053 516.767 35.9365C516.471 36.0635 516.137 36.127 515.764 36.127C515.299 36.127 514.89 36.036 514.539 35.854C514.192 35.672 513.921 35.4287 513.727 35.124C513.536 34.8151 513.441 34.4702 513.441 34.0894C513.441 33.7212 513.513 33.3975 513.657 33.1182C513.801 32.8346 514.008 32.5998 514.279 32.4136C514.55 32.2231 514.875 32.0793 515.256 31.9819C515.637 31.8846 516.062 31.8359 516.532 31.8359H517.897ZM521.89 30.4521V38.6406H520.709V29.1318H521.788L521.89 30.4521ZM526.517 32.5088V32.6421C526.517 33.1414 526.458 33.6048 526.339 34.0322C526.221 34.4554 526.047 34.8236 525.819 35.1367C525.595 35.4499 525.317 35.6932 524.987 35.8667C524.657 36.0402 524.278 36.127 523.851 36.127C523.415 36.127 523.03 36.055 522.696 35.9111C522.361 35.7673 522.078 35.5578 521.845 35.2827C521.612 35.0076 521.426 34.6776 521.287 34.2925C521.151 33.9074 521.058 33.4736 521.007 32.9912V32.2803C521.058 31.7725 521.153 31.3175 521.293 30.9155C521.433 30.5135 521.617 30.1707 521.845 29.8872C522.078 29.5994 522.359 29.3815 522.689 29.2334C523.02 29.0811 523.4 29.0049 523.832 29.0049C524.264 29.0049 524.647 29.0895 524.981 29.2588C525.315 29.4238 525.597 29.6608 525.825 29.9697C526.054 30.2786 526.225 30.6489 526.339 31.0806C526.458 31.508 526.517 31.984 526.517 32.5088ZM525.336 32.6421V32.5088C525.336 32.166 525.3 31.8444 525.229 31.5439C525.157 31.2393 525.044 30.9727 524.892 30.7441C524.744 30.5114 524.554 30.3294 524.321 30.1982C524.088 30.0628 523.811 29.9951 523.489 29.9951C523.193 29.9951 522.935 30.0459 522.715 30.1475C522.499 30.249 522.315 30.3866 522.163 30.5601C522.01 30.7293 521.885 30.924 521.788 31.144C521.695 31.3599 521.625 31.5841 521.579 31.8169V33.4609C521.663 33.7572 521.782 34.0365 521.934 34.2988C522.086 34.557 522.29 34.7664 522.543 34.9272C522.797 35.0838 523.117 35.1621 523.502 35.1621C523.819 35.1621 524.092 35.0965 524.321 34.9653C524.554 34.8299 524.744 34.6458 524.892 34.4131C525.044 34.1803 525.157 33.9137 525.229 33.6133C525.3 33.3086 525.336 32.9849 525.336 32.6421ZM530.307 29.1318V36H529.126V29.1318H530.307ZM532.611 29.1318V30.084H526.866V29.1318H532.611ZM538.425 32.1089V33.061H534.794V32.1089H538.425ZM535.042 29.1318V36H533.868V29.1318H535.042ZM539.377 29.1318V36H538.197V29.1318H539.377ZM544.119 36.127C543.641 36.127 543.207 36.0465 542.818 35.8857C542.433 35.7207 542.101 35.4901 541.821 35.1938C541.546 34.8976 541.335 34.5464 541.187 34.1401C541.038 33.7339 540.964 33.2896 540.964 32.8071V32.5405C540.964 31.9819 541.047 31.4847 541.212 31.0488C541.377 30.6087 541.601 30.2363 541.885 29.9316C542.168 29.627 542.49 29.3963 542.85 29.2397C543.209 29.0832 543.582 29.0049 543.967 29.0049C544.458 29.0049 544.881 29.0895 545.236 29.2588C545.596 29.4281 545.89 29.665 546.119 29.9697C546.347 30.2702 546.516 30.6257 546.626 31.0361C546.736 31.4424 546.792 31.8867 546.792 32.3691V32.896H541.663V31.9375H545.617V31.8486C545.6 31.5439 545.537 31.2477 545.427 30.96C545.321 30.6722 545.152 30.4352 544.919 30.249C544.686 30.0628 544.369 29.9697 543.967 29.9697C543.7 29.9697 543.455 30.0269 543.23 30.1411C543.006 30.2511 542.814 30.4162 542.653 30.6362C542.492 30.8563 542.367 31.125 542.278 31.4424C542.189 31.7598 542.145 32.1258 542.145 32.5405V32.8071C542.145 33.133 542.189 33.4398 542.278 33.7275C542.371 34.0111 542.505 34.2607 542.678 34.4766C542.856 34.6924 543.07 34.8617 543.319 34.9844C543.573 35.1071 543.861 35.1685 544.183 35.1685C544.597 35.1685 544.949 35.0838 545.236 34.9146C545.524 34.7453 545.776 34.5189 545.992 34.2354L546.703 34.8003C546.555 35.0246 546.366 35.2383 546.138 35.4414C545.909 35.6445 545.628 35.8096 545.293 35.9365C544.963 36.0635 544.572 36.127 544.119 36.127ZM549.337 30.4521V38.6406H548.156V29.1318H549.235L549.337 30.4521ZM553.964 32.5088V32.6421C553.964 33.1414 553.905 33.6048 553.787 34.0322C553.668 34.4554 553.495 34.8236 553.266 35.1367C553.042 35.4499 552.765 35.6932 552.435 35.8667C552.104 36.0402 551.726 36.127 551.298 36.127C550.862 36.127 550.477 36.055 550.143 35.9111C549.809 35.7673 549.525 35.5578 549.292 35.2827C549.06 35.0076 548.874 34.6776 548.734 34.2925C548.598 33.9074 548.505 33.4736 548.455 32.9912V32.2803C548.505 31.7725 548.601 31.3175 548.74 30.9155C548.88 30.5135 549.064 30.1707 549.292 29.8872C549.525 29.5994 549.807 29.3815 550.137 29.2334C550.467 29.0811 550.848 29.0049 551.279 29.0049C551.711 29.0049 552.094 29.0895 552.428 29.2588C552.763 29.4238 553.044 29.6608 553.272 29.9697C553.501 30.2786 553.672 30.6489 553.787 31.0806C553.905 31.508 553.964 31.984 553.964 32.5088ZM552.784 32.6421V32.5088C552.784 32.166 552.748 31.8444 552.676 31.5439C552.604 31.2393 552.492 30.9727 552.339 30.7441C552.191 30.5114 552.001 30.3294 551.768 30.1982C551.535 30.0628 551.258 29.9951 550.937 29.9951C550.64 29.9951 550.382 30.0459 550.162 30.1475C549.946 30.249 549.762 30.3866 549.61 30.5601C549.458 30.7293 549.333 30.924 549.235 31.144C549.142 31.3599 549.072 31.5841 549.026 31.8169V33.4609C549.111 33.7572 549.229 34.0365 549.381 34.2988C549.534 34.557 549.737 34.7664 549.991 34.9272C550.245 35.0838 550.564 35.1621 550.949 35.1621C551.267 35.1621 551.54 35.0965 551.768 34.9653C552.001 34.8299 552.191 34.6458 552.339 34.4131C552.492 34.1803 552.604 33.9137 552.676 33.6133C552.748 33.3086 552.784 32.9849 552.784 32.6421ZM558.211 35.1621C558.49 35.1621 558.748 35.105 558.985 34.9907C559.222 34.8765 559.417 34.7199 559.569 34.521C559.722 34.3179 559.808 34.0872 559.83 33.8291H560.947C560.926 34.2354 560.788 34.6141 560.534 34.9653C560.285 35.3123 559.957 35.5938 559.55 35.8096C559.144 36.0212 558.698 36.127 558.211 36.127C557.695 36.127 557.244 36.036 556.859 35.854C556.478 35.672 556.161 35.4224 555.907 35.105C555.657 34.7876 555.469 34.4237 555.342 34.0132C555.219 33.5985 555.158 33.1605 555.158 32.6992V32.4326C555.158 31.9714 555.219 31.5355 555.342 31.125C555.469 30.7103 555.657 30.3442 555.907 30.0269C556.161 29.7095 556.478 29.4598 556.859 29.2778C557.244 29.0959 557.695 29.0049 558.211 29.0049C558.748 29.0049 559.218 29.1149 559.62 29.335C560.022 29.5508 560.337 29.847 560.566 30.2236C560.799 30.596 560.926 31.0192 560.947 31.4932H559.83C559.808 31.2096 559.728 30.9536 559.588 30.7251C559.453 30.4966 559.267 30.3146 559.03 30.1792C558.797 30.0396 558.524 29.9697 558.211 29.9697C557.851 29.9697 557.549 30.0417 557.303 30.1855C557.062 30.3252 556.869 30.5156 556.726 30.7568C556.586 30.9938 556.484 31.2583 556.421 31.5503C556.362 31.8381 556.332 32.1322 556.332 32.4326V32.6992C556.332 32.9997 556.362 33.2959 556.421 33.5879C556.48 33.8799 556.58 34.1444 556.719 34.3813C556.863 34.6183 557.056 34.8088 557.297 34.9526C557.542 35.0923 557.847 35.1621 558.211 35.1621ZM565.066 29.1318V36H563.886V29.1318H565.066ZM567.371 29.1318V30.084H561.626V29.1318H567.371ZM571.75 32.9785H569.497L569.484 32.0391H571.325C571.689 32.0391 571.992 32.0031 572.233 31.9312C572.478 31.8592 572.662 31.7513 572.785 31.6074C572.908 31.4635 572.969 31.2858 572.969 31.0742C572.969 30.9092 572.933 30.7653 572.861 30.6426C572.794 30.5156 572.69 30.4119 572.55 30.3315C572.411 30.2469 572.237 30.1855 572.03 30.1475C571.827 30.1051 571.588 30.084 571.312 30.084H569.808V36H568.634V29.1318H571.312C571.748 29.1318 572.14 29.1699 572.487 29.2461C572.838 29.3223 573.136 29.4386 573.382 29.5952C573.632 29.7476 573.822 29.9422 573.953 30.1792C574.084 30.4162 574.15 30.6955 574.15 31.0171C574.15 31.2244 574.108 31.4212 574.023 31.6074C573.938 31.7936 573.813 31.9587 573.648 32.1025C573.483 32.2464 573.28 32.3649 573.039 32.458C572.798 32.5469 572.521 32.604 572.208 32.6294L571.75 32.9785ZM571.75 36H569.072L569.656 35.0479H571.75C572.076 35.0479 572.347 35.0076 572.563 34.9272C572.779 34.8426 572.94 34.7241 573.045 34.5718C573.155 34.4152 573.21 34.229 573.21 34.0132C573.21 33.7974 573.155 33.6133 573.045 33.4609C572.94 33.3044 572.779 33.1859 572.563 33.1055C572.347 33.0208 572.076 32.9785 571.75 32.9785H569.967L569.979 32.0391H572.208L572.633 32.3945C573.009 32.4242 573.329 32.5173 573.591 32.6738C573.854 32.8304 574.053 33.0293 574.188 33.2705C574.323 33.5075 574.391 33.7656 574.391 34.0449C574.391 34.3665 574.33 34.6501 574.207 34.8955C574.089 35.141 573.915 35.3462 573.687 35.5112C573.458 35.672 573.181 35.7948 572.855 35.8794C572.529 35.9598 572.161 36 571.75 36ZM580.015 34.8257V31.29C580.015 31.0192 579.96 30.7843 579.85 30.5854C579.744 30.3823 579.583 30.2257 579.368 30.1157C579.152 30.0057 578.885 29.9507 578.568 29.9507C578.272 29.9507 578.011 30.0015 577.787 30.103C577.567 30.2046 577.394 30.3379 577.267 30.5029C577.144 30.668 577.083 30.8457 577.083 31.0361H575.908C575.908 30.7907 575.972 30.5474 576.099 30.3062C576.226 30.0649 576.408 29.847 576.645 29.6523C576.886 29.4535 577.174 29.2969 577.508 29.1826C577.846 29.0641 578.223 29.0049 578.638 29.0049C579.137 29.0049 579.577 29.0895 579.958 29.2588C580.343 29.4281 580.644 29.6841 580.859 30.0269C581.079 30.3654 581.189 30.7907 581.189 31.3027V34.502C581.189 34.7305 581.208 34.9738 581.247 35.2319C581.289 35.4901 581.35 35.7122 581.431 35.8984V36H580.206C580.146 35.8646 580.1 35.6847 580.066 35.4604C580.032 35.2319 580.015 35.0203 580.015 34.8257ZM580.218 31.8359L580.231 32.6611H579.044C578.71 32.6611 578.411 32.6886 578.149 32.7437C577.887 32.7944 577.667 32.8727 577.489 32.9785C577.311 33.0843 577.176 33.2176 577.083 33.3784C576.989 33.535 576.943 33.7191 576.943 33.9307C576.943 34.1465 576.992 34.3433 577.089 34.521C577.186 34.6987 577.332 34.8405 577.527 34.9463C577.726 35.0479 577.969 35.0986 578.257 35.0986C578.617 35.0986 578.934 35.0225 579.209 34.8701C579.484 34.7178 579.702 34.5316 579.863 34.3115C580.028 34.0915 580.117 33.8778 580.129 33.6704L580.631 34.2354C580.601 34.4131 580.521 34.6099 580.39 34.8257C580.258 35.0415 580.083 35.2489 579.863 35.4478C579.647 35.6424 579.389 35.8053 579.088 35.9365C578.792 36.0635 578.458 36.127 578.085 36.127C577.62 36.127 577.212 36.036 576.86 35.854C576.513 35.672 576.243 35.4287 576.048 35.124C575.857 34.8151 575.762 34.4702 575.762 34.0894C575.762 33.7212 575.834 33.3975 575.978 33.1182C576.122 32.8346 576.329 32.5998 576.6 32.4136C576.871 32.2231 577.197 32.0793 577.578 31.9819C577.958 31.8846 578.384 31.8359 578.854 31.8359H580.218Z" fill="black" fill-opacity="0.54"/>
<path d="M1039.59 31.6772H1037.25L1037.23 30.6934H1039.36C1039.71 30.6934 1040.02 30.6341 1040.28 30.5156C1040.54 30.3971 1040.75 30.2279 1040.89 30.0078C1041.04 29.7835 1041.11 29.5169 1041.11 29.208C1041.11 28.8695 1041.05 28.5944 1040.92 28.3828C1040.79 28.167 1040.59 28.0104 1040.33 27.9131C1040.06 27.8115 1039.73 27.7607 1039.32 27.7607H1037.52V36H1036.29V26.7578H1039.32C1039.8 26.7578 1040.22 26.8065 1040.59 26.9038C1040.96 26.9969 1041.28 27.145 1041.54 27.3481C1041.8 27.547 1042 27.8009 1042.13 28.1099C1042.27 28.4188 1042.34 28.7891 1042.34 29.2207C1042.34 29.6016 1042.24 29.9465 1042.05 30.2554C1041.85 30.5601 1041.58 30.8097 1041.23 31.0044C1040.89 31.1991 1040.49 31.3239 1040.03 31.3789L1039.59 31.6772ZM1039.53 36H1036.76L1037.46 35.0034H1039.53C1039.92 35.0034 1040.25 34.9357 1040.52 34.8003C1040.8 34.6649 1041.01 34.4744 1041.15 34.229C1041.29 33.9793 1041.37 33.6852 1041.37 33.3467C1041.37 33.0039 1041.3 32.7077 1041.18 32.458C1041.06 32.2083 1040.87 32.0158 1040.6 31.8804C1040.34 31.745 1040 31.6772 1039.59 31.6772H1037.84L1037.86 30.6934H1040.24L1040.5 31.0488C1040.95 31.0869 1041.32 31.2139 1041.63 31.4297C1041.94 31.6413 1042.18 31.9121 1042.34 32.2422C1042.5 32.5723 1042.58 32.9362 1042.58 33.334C1042.58 33.9095 1042.46 34.3962 1042.2 34.7939C1041.95 35.1875 1041.6 35.488 1041.14 35.6953C1040.69 35.8984 1040.15 36 1039.53 36ZM1043.91 32.6421V32.4961C1043.91 32.001 1043.98 31.5418 1044.12 31.1187C1044.26 30.6912 1044.47 30.321 1044.74 30.0078C1045.01 29.6904 1045.34 29.445 1045.73 29.2715C1046.11 29.0938 1046.54 29.0049 1047.02 29.0049C1047.5 29.0049 1047.94 29.0938 1048.32 29.2715C1048.71 29.445 1049.04 29.6904 1049.31 30.0078C1049.59 30.321 1049.8 30.6912 1049.94 31.1187C1050.09 31.5418 1050.16 32.001 1050.16 32.4961V32.6421C1050.16 33.1372 1050.09 33.5964 1049.94 34.0195C1049.8 34.4427 1049.59 34.813 1049.31 35.1304C1049.04 35.4435 1048.71 35.689 1048.33 35.8667C1047.95 36.0402 1047.52 36.127 1047.03 36.127C1046.55 36.127 1046.12 36.0402 1045.73 35.8667C1045.35 35.689 1045.02 35.4435 1044.74 35.1304C1044.47 34.813 1044.26 34.4427 1044.12 34.0195C1043.98 33.5964 1043.91 33.1372 1043.91 32.6421ZM1045.08 32.4961V32.6421C1045.08 32.9849 1045.12 33.3086 1045.2 33.6133C1045.28 33.9137 1045.4 34.1803 1045.56 34.4131C1045.73 34.6458 1045.93 34.8299 1046.18 34.9653C1046.42 35.0965 1046.71 35.1621 1047.03 35.1621C1047.36 35.1621 1047.64 35.0965 1047.88 34.9653C1048.12 34.8299 1048.33 34.6458 1048.49 34.4131C1048.65 34.1803 1048.77 33.9137 1048.85 33.6133C1048.93 33.3086 1048.98 32.9849 1048.98 32.6421V32.4961C1048.98 32.1576 1048.93 31.8381 1048.85 31.5376C1048.77 31.2329 1048.65 30.9642 1048.48 30.7314C1048.32 30.4945 1048.12 30.3083 1047.87 30.1729C1047.63 30.0374 1047.35 29.9697 1047.02 29.9697C1046.7 29.9697 1046.42 30.0374 1046.17 30.1729C1045.93 30.3083 1045.73 30.4945 1045.56 30.7314C1045.4 30.9642 1045.28 31.2329 1045.2 31.5376C1045.12 31.8381 1045.08 32.1576 1045.08 32.4961ZM1052.9 34.1401L1056.07 29.1318H1057.25V36H1056.07V30.9917L1052.9 36H1051.73V29.1318H1052.9V34.1401ZM1055.43 26.6436H1056.38C1056.38 26.9736 1056.3 27.2677 1056.15 27.5259C1056 27.7798 1055.78 27.9787 1055.5 28.1226C1055.21 28.2664 1054.88 28.3384 1054.49 28.3384C1053.9 28.3384 1053.43 28.1818 1053.09 27.8687C1052.75 27.5513 1052.58 27.1429 1052.58 26.6436H1053.53C1053.53 26.8932 1053.61 27.1133 1053.75 27.3037C1053.89 27.4941 1054.14 27.5894 1054.49 27.5894C1054.83 27.5894 1055.07 27.4941 1055.21 27.3037C1055.35 27.1133 1055.43 26.8932 1055.43 26.6436ZM1061.93 29.1318V36H1060.75V29.1318H1061.93ZM1064.24 29.1318V30.084H1058.49V29.1318H1064.24ZM1066.66 34.1401L1069.83 29.1318H1071.01V36H1069.83V30.9917L1066.66 36H1065.49V29.1318H1066.66V34.1401Z" fill="#336FEE"/>
<path fill-rule="evenodd" clip-rule="evenodd" d="M1090.47 24.4977C1090.52 24.2785 1090.58 24.2139 1090.69 24.0846C1090.96 23.7582 1091.31 23.4895 1091.68 23.3059C1092.3 23 1093.12 23 1094.74 23H1096.26C1097.88 23 1098.7 23 1099.32 23.3059C1099.92 23.5988 1100.4 24.0823 1100.69 24.6802C1101 25.3046 1101 26.1164 1101 27.74V36.26C1101 37.8836 1101 38.6954 1100.69 39.3198C1100.4 39.9177 1099.92 40.4012 1099.32 40.6941C1098.7 41 1097.88 41 1096.26 41H1094.74C1093.12 41 1092.3 41 1091.68 40.6941C1091.31 40.5105 1090.96 40.2418 1090.69 39.9154C1090.58 39.7861 1090.52 39.7215 1090.47 39.5023C1090.43 39.3459 1090.45 39.0195 1090.51 38.8702C1090.6 38.6611 1090.72 38.556 1090.95 38.3457L1097.17 32.7433C1097.62 32.346 1097.62 31.6539 1097.17 31.2567L1090.95 25.6543C1090.72 25.444 1090.6 25.3389 1090.51 25.1298C1090.45 24.9805 1090.43 24.6541 1090.47 24.4977ZM1094.5 32C1094.5 31.5899 1094.25 31.2374 1093.9 31.0831L1090.64 28.3669C1089.99 27.8241 1089 28.2873 1089 29.1351V31L1083 31.0001C1082.45 31.0001 1082 31.4478 1082 32.0001C1082 32.5523 1082.45 33.0001 1083 33.0001L1089 33V34.865C1089 35.7128 1089.99 36.176 1090.64 35.6332L1093.9 32.917C1094.25 32.7627 1094.5 32.4102 1094.5 32Z" fill="#336FEE"/>
<defs>
<filter id="filter0_i_1_7211" x="199" y="0" width="85" height="64" filterUnits="userSpaceOnUse" color-interpolation-filters="sRGB">
<feFlood flood-opacity="0" result="BackgroundImageFix"/>
<feBlend mode="normal" in="SourceGraphic" in2="BackgroundImageFix" result="shape"/>
<feColorMatrix in="SourceAlpha" type="matrix" values="0 0 0 0 0 0 0 0 0 0 0 0 0 0 0 0 0 0 127 0" result="hardAlpha"/>
<feOffset dy="-2"/>
<feComposite in2="hardAlpha" operator="arithmetic" k2="-1" k3="1"/>
<feColorMatrix type="matrix" values="0 0 0 0 0.4 0 0 0 0 0.4 0 0 0 0 0.4 0 0 0 1 0"/>
<feBlend mode="normal" in2="shape" result="effect1_innerShadow_1_7211"/>
</filter>
<clipPath id="clip0_1_7211">
<rect width="38" height="34" fill="white" transform="translate(0 15)"/>
</clipPath>
</defs>
</svg>
