<svg width="107" height="12" viewBox="0 0 107 12" fill="none" xmlns="http://www.w3.org/2000/svg">
<path fill-rule="evenodd" clip-rule="evenodd" d="M84.0163 1.46285V0.5H80.9814V1.46285C77.172 1.54657 74.8906 3.15821 74.8906 6.00474C74.8906 8.85128 77.172 10.3373 80.9814 10.4211V11.5H84.0163V10.4211C87.8465 10.3373 90.0633 8.82027 90.0633 5.97374C90.0633 3.1272 87.8465 1.54657 84.0163 1.46285ZM80.9814 8.28616C78.8883 8.20243 77.9674 7.34429 77.9674 6.00474C77.9674 4.6652 78.8883 3.7024 80.9814 3.61868V8.28616ZM84.0163 8.28616V3.61868C86.1302 3.7024 86.9966 4.6652 86.9966 6.00474C86.9966 7.34429 86.1302 8.20243 84.0163 8.28616ZM60.9735 6.03281C60.9735 3.06369 63.4199 0.763672 67.4972 0.763672C71.5536 0.763672 74 3.06369 74 6.03281C74 9.00192 71.5536 11.3019 67.4972 11.3019C63.4199 11.3019 60.9735 9.00192 60.9735 6.03281ZM64.1726 6.03281C64.1726 7.66373 65.469 8.87647 67.4972 8.87647C69.5045 8.87647 70.8218 7.66373 70.8218 6.03281C70.8218 4.40188 69.5045 3.21006 67.4972 3.21006C65.469 3.21006 64.1726 4.40188 64.1726 6.03281ZM0.00585938 1.03551L0 1.03553V3.97042H0.00585938V4H4V11L5.71795 10.9989L7.00143 11.0069V4H11V3.97042H11.0109L11 2.81032V1H10.983L10.983 0.999761L10.9098 1H0.00585938V1.03551ZM15.0342 6.8274L20.2615 1.03553H22.9379V10.9883L19.9805 10.999L19.9749 5.11741L19.906 5.19648L14.6788 10.9883H12.0024V1.03553H15.0342V6.8274ZM27.9665 7.46914H32.9962V10.9883H35.977V1.03553H32.9962V4.95048H27.9665V1.03553H25.0018V10.9883H27.9665V7.46914ZM46.3546 10.7583C45.7691 10.9256 45.1418 10.9883 44.4518 10.9883H37.9628V1.03553H40.9947V3.71192H44.4518C45.2045 3.71192 45.9991 3.73283 46.6682 3.98374C48.0691 4.50647 48.9473 5.65648 48.9473 7.30831C48.9473 9.04378 47.9228 10.3193 46.3546 10.7583ZM43.9291 6.05376H40.9947V8.58378H43.9291C44.4518 8.58378 44.7864 8.58378 45.1209 8.43741C45.6018 8.22832 45.8946 7.78923 45.8946 7.26649C45.8946 6.76467 45.6018 6.34649 45.1 6.17921C44.7445 6.05376 44.3473 6.05376 43.9291 6.05376ZM52.9971 7.22464H53.6059L57.2232 10.9883H61.2587L56.2196 5.80281L61.0705 1.03549H57.2651L53.6059 4.77825H52.9971V1.03549H49.9653V10.9883H52.9971V7.22464ZM100.003 0.5V1.46219C103.833 1.54591 106.05 3.12655 106.05 5.97308C106.05 8.81962 103.833 10.3367 100.003 10.4204V11.4993H96.9677V10.4204C93.1584 10.3367 90.877 8.85062 90.877 6.00409C90.877 3.15755 93.1584 1.54591 96.9677 1.46219V0.5H100.003ZM93.9537 6.00409C93.9537 7.34363 94.8747 8.20178 96.9677 8.2855V3.61802C94.8747 3.70174 93.9537 4.66454 93.9537 6.00409ZM100.003 3.61802V8.2855C102.117 8.20178 102.983 7.34363 102.983 6.00409C102.983 4.66454 102.117 3.70174 100.003 3.61802Z" fill="black"/>
</svg>
