<svg width="85" height="64" viewBox="0 0 85 64" fill="none" xmlns="http://www.w3.org/2000/svg">
<g filter="url(#filter0_i_2115_149)">
<rect width="85" height="64" fill="white" fill-opacity="0.01"/>
<path d="M4.27832 27.6782H5.80811C6.34131 27.6782 6.83431 27.7692 7.28711 27.9512C7.74414 28.1289 8.14193 28.3828 8.48047 28.7129C8.82324 29.043 9.08984 29.4365 9.28027 29.8936C9.4707 30.3464 9.56592 30.8478 9.56592 31.3979C9.56592 31.9481 9.4707 32.4517 9.28027 32.9087C9.08984 33.3657 8.82324 33.7614 8.48047 34.0957C8.14193 34.4258 7.74414 34.6818 7.28711 34.8638C6.83431 35.0415 6.34131 35.1304 5.80811 35.1304H4.27832C3.74512 35.1304 3.25212 35.0415 2.79932 34.8638C2.34652 34.6818 1.94873 34.4258 1.60596 34.0957C1.26742 33.7656 1.00293 33.3742 0.8125 32.9214C0.626302 32.4644 0.533203 31.9608 0.533203 31.4106C0.533203 30.8605 0.626302 30.359 0.8125 29.9062C1.00293 29.4492 1.26742 29.0557 1.60596 28.7256C1.94873 28.3913 2.34652 28.1331 2.79932 27.9512C3.25212 27.7692 3.74512 27.6782 4.27832 27.6782ZM4.27832 28.6431C3.72396 28.6431 3.25423 28.7594 2.86914 28.9922C2.48405 29.2207 2.19206 29.5423 1.99316 29.957C1.79427 30.3717 1.69482 30.8563 1.69482 31.4106C1.69482 31.8296 1.74984 32.2083 1.85986 32.5469C1.97412 32.8854 2.14128 33.1753 2.36133 33.4165C2.58138 33.6577 2.85221 33.8439 3.17383 33.9751C3.49544 34.1063 3.86361 34.1719 4.27832 34.1719H5.8208C6.37093 34.1719 6.83643 34.0576 7.21729 33.8291C7.60238 33.5964 7.89437 33.2726 8.09326 32.8579C8.29639 32.439 8.39795 31.9523 8.39795 31.3979C8.39795 30.9832 8.34082 30.6066 8.22656 30.2681C8.1123 29.9295 7.94515 29.6396 7.7251 29.3984C7.50928 29.1572 7.24056 28.971 6.91895 28.8398C6.60156 28.7087 6.23551 28.6431 5.8208 28.6431H4.27832ZM5.63672 26.377V36.3809H4.4624V26.377H5.63672ZM12.2065 34.1401L15.374 29.1318H16.5547V36H15.374V30.9917L12.2065 36H11.0386V29.1318H12.2065V34.1401ZM23.0991 32.1089V33.061H19.4683V32.1089H23.0991ZM19.7158 29.1318V36H18.5415V29.1318H19.7158ZM24.0513 29.1318V36H22.8706V29.1318H24.0513ZM28.7422 29.1318V36H27.5615V29.1318H28.7422ZM31.0464 29.1318V30.084H25.3018V29.1318H31.0464ZM34.5439 36.127C34.0658 36.127 33.632 36.0465 33.2427 35.8857C32.8576 35.7207 32.5254 35.4901 32.2461 35.1938C31.971 34.8976 31.7594 34.5464 31.6113 34.1401C31.4632 33.7339 31.3892 33.2896 31.3892 32.8071V32.5405C31.3892 31.9819 31.4717 31.4847 31.6367 31.0488C31.8018 30.6087 32.026 30.2363 32.3096 29.9316C32.5931 29.627 32.9147 29.3963 33.2744 29.2397C33.6341 29.0832 34.0065 29.0049 34.3916 29.0049C34.8825 29.0049 35.3057 29.0895 35.6611 29.2588C36.0208 29.4281 36.3149 29.665 36.5435 29.9697C36.772 30.2702 36.9412 30.6257 37.0513 31.0361C37.1613 31.4424 37.2163 31.8867 37.2163 32.3691V32.896H32.0874V31.9375H36.042V31.8486C36.0251 31.5439 35.9616 31.2477 35.8516 30.96C35.7458 30.6722 35.5765 30.4352 35.3438 30.249C35.111 30.0628 34.7936 29.9697 34.3916 29.9697C34.125 29.9697 33.8796 30.0269 33.6553 30.1411C33.431 30.2511 33.2384 30.4162 33.0776 30.6362C32.9168 30.8563 32.792 31.125 32.7031 31.4424C32.6143 31.7598 32.5698 32.1258 32.5698 32.5405V32.8071C32.5698 33.133 32.6143 33.4398 32.7031 33.7275C32.7962 34.0111 32.9295 34.2607 33.103 34.4766C33.2808 34.6924 33.4945 34.8617 33.7441 34.9844C33.998 35.1071 34.2858 35.1685 34.6074 35.1685C35.0221 35.1685 35.3734 35.0838 35.6611 34.9146C35.9489 34.7453 36.2007 34.5189 36.4165 34.2354L37.1274 34.8003C36.9793 35.0246 36.791 35.2383 36.5625 35.4414C36.334 35.6445 36.0526 35.8096 35.7183 35.9365C35.3882 36.0635 34.9967 36.127 34.5439 36.127ZM39.3809 29.1318L40.8853 31.6328L42.4087 29.1318H43.7861L41.5391 32.5215L43.856 36H42.4976L40.9106 33.4229L39.3237 36H37.959L40.2695 32.5215L38.0288 29.1318H39.3809ZM49.5371 29.1318V36H48.3628V29.1318H49.5371ZM54.0439 29.1318L50.7876 33.0674H49.1436L48.9658 32.0391H50.3115L52.6157 29.1318H54.0439ZM52.7808 36L50.2544 32.8896L51.0098 32.0391L54.2725 36H52.7808ZM57.2241 35.2891L59.1348 29.1318H60.3916L57.6367 37.0601C57.5732 37.2293 57.4886 37.4113 57.3828 37.606C57.2812 37.8049 57.1501 37.9932 56.9893 38.1709C56.8285 38.3486 56.6338 38.4925 56.4053 38.6025C56.181 38.7168 55.9123 38.7739 55.5991 38.7739C55.506 38.7739 55.3875 38.7612 55.2437 38.7358C55.0998 38.7104 54.9982 38.6893 54.939 38.6724L54.9326 37.7202C54.9665 37.7244 55.0194 37.7287 55.0913 37.7329C55.1675 37.7414 55.2204 37.7456 55.25 37.7456C55.5166 37.7456 55.743 37.7096 55.9292 37.6377C56.1154 37.57 56.272 37.4536 56.3989 37.2886C56.5301 37.1278 56.6423 36.9056 56.7354 36.6221L57.2241 35.2891ZM55.8213 29.1318L57.605 34.4639L57.9097 35.7017L57.0654 36.1333L54.5391 29.1318H55.8213ZM62.626 30.4521V38.6406H61.4453V29.1318H62.5244L62.626 30.4521ZM67.2534 32.5088V32.6421C67.2534 33.1414 67.1942 33.6048 67.0757 34.0322C66.9572 34.4554 66.7837 34.8236 66.5552 35.1367C66.3309 35.4499 66.0537 35.6932 65.7236 35.8667C65.3936 36.0402 65.0148 36.127 64.5874 36.127C64.1515 36.127 63.7664 36.055 63.4321 35.9111C63.0978 35.7673 62.8143 35.5578 62.5815 35.2827C62.3488 35.0076 62.1626 34.6776 62.0229 34.2925C61.8875 33.9074 61.7944 33.4736 61.7437 32.9912V32.2803C61.7944 31.7725 61.8896 31.3175 62.0293 30.9155C62.1689 30.5135 62.353 30.1707 62.5815 29.8872C62.8143 29.5994 63.0957 29.3815 63.4258 29.2334C63.7559 29.0811 64.1367 29.0049 64.5684 29.0049C65 29.0049 65.383 29.0895 65.7173 29.2588C66.0516 29.4238 66.333 29.6608 66.5615 29.9697C66.79 30.2786 66.9614 30.6489 67.0757 31.0806C67.1942 31.508 67.2534 31.984 67.2534 32.5088ZM66.0728 32.6421V32.5088C66.0728 32.166 66.0368 31.8444 65.9648 31.5439C65.8929 31.2393 65.7808 30.9727 65.6284 30.7441C65.4803 30.5114 65.2899 30.3294 65.0571 30.1982C64.8244 30.0628 64.5472 29.9951 64.2256 29.9951C63.9294 29.9951 63.6712 30.0459 63.4512 30.1475C63.2354 30.249 63.0513 30.3866 62.8989 30.5601C62.7466 30.7293 62.6217 30.924 62.5244 31.144C62.4313 31.3599 62.3615 31.5841 62.3149 31.8169V33.4609C62.3996 33.7572 62.5181 34.0365 62.6704 34.2988C62.8228 34.557 63.0259 34.7664 63.2798 34.9272C63.5337 35.0838 63.8532 35.1621 64.2383 35.1621C64.5557 35.1621 64.8286 35.0965 65.0571 34.9653C65.2899 34.8299 65.4803 34.6458 65.6284 34.4131C65.7808 34.1803 65.8929 33.9137 65.9648 33.6133C66.0368 33.3086 66.0728 32.9849 66.0728 32.6421ZM71.5 35.1621C71.7793 35.1621 72.0374 35.105 72.2744 34.9907C72.5114 34.8765 72.7061 34.7199 72.8584 34.521C73.0107 34.3179 73.0975 34.0872 73.1187 33.8291H74.2358C74.2147 34.2354 74.0771 34.6141 73.8232 34.9653C73.5736 35.3123 73.2456 35.5938 72.8394 35.8096C72.4331 36.0212 71.9867 36.127 71.5 36.127C70.9837 36.127 70.533 36.036 70.1479 35.854C69.7671 35.672 69.4497 35.4224 69.1958 35.105C68.9461 34.7876 68.7578 34.4237 68.6309 34.0132C68.5081 33.5985 68.4468 33.1605 68.4468 32.6992V32.4326C68.4468 31.9714 68.5081 31.5355 68.6309 31.125C68.7578 30.7103 68.9461 30.3442 69.1958 30.0269C69.4497 29.7095 69.7671 29.4598 70.1479 29.2778C70.533 29.0959 70.9837 29.0049 71.5 29.0049C72.0374 29.0049 72.5072 29.1149 72.9092 29.335C73.3112 29.5508 73.6265 29.847 73.855 30.2236C74.0877 30.596 74.2147 31.0192 74.2358 31.4932H73.1187C73.0975 31.2096 73.0171 30.9536 72.8774 30.7251C72.742 30.4966 72.5558 30.3146 72.3188 30.1792C72.0861 30.0396 71.8132 29.9697 71.5 29.9697C71.1403 29.9697 70.8377 30.0417 70.5923 30.1855C70.3511 30.3252 70.1585 30.5156 70.0146 30.7568C69.875 30.9938 69.7734 31.2583 69.71 31.5503C69.6507 31.8381 69.6211 32.1322 69.6211 32.4326V32.6992C69.6211 32.9997 69.6507 33.2959 69.71 33.5879C69.7692 33.8799 69.8687 34.1444 70.0083 34.3813C70.1522 34.6183 70.3447 34.8088 70.5859 34.9526C70.8314 35.0923 71.1361 35.1621 71.5 35.1621ZM76.521 31.4932H78.584C79.1383 31.4932 79.606 31.5905 79.9868 31.7852C80.3677 31.9756 80.6554 32.2401 80.8501 32.5786C81.049 32.9129 81.1484 33.2938 81.1484 33.7212C81.1484 34.0386 81.0934 34.3369 80.9834 34.6162C80.8734 34.8913 80.7083 35.1325 80.4883 35.3398C80.2725 35.5472 80.0037 35.7101 79.6821 35.8286C79.3647 35.9429 78.9987 36 78.584 36H75.6641V29.1318H76.8384V35.0352H78.584C78.9225 35.0352 79.1934 34.9738 79.3965 34.8511C79.5996 34.7284 79.7456 34.5697 79.8345 34.375C79.9233 34.1803 79.9678 33.9772 79.9678 33.7656C79.9678 33.5583 79.9233 33.3551 79.8345 33.1562C79.7456 32.9574 79.5996 32.7923 79.3965 32.6611C79.1934 32.5257 78.9225 32.458 78.584 32.458H76.521V31.4932ZM83.5923 29.1318V36H82.418V29.1318H83.5923Z" fill="black" fill-opacity="0.8"/>
</g>
<defs>
<filter id="filter0_i_2115_149" x="0" y="0" width="85" height="64" filterUnits="userSpaceOnUse" color-interpolation-filters="sRGB">
<feFlood flood-opacity="0" result="BackgroundImageFix"/>
<feBlend mode="normal" in="SourceGraphic" in2="BackgroundImageFix" result="shape"/>
<feColorMatrix in="SourceAlpha" type="matrix" values="0 0 0 0 0 0 0 0 0 0 0 0 0 0 0 0 0 0 127 0" result="hardAlpha"/>
<feOffset dy="-2"/>
<feComposite in2="hardAlpha" operator="arithmetic" k2="-1" k3="1"/>
<feColorMatrix type="matrix" values="0 0 0 0 0.4 0 0 0 0 0.4 0 0 0 0 0.4 0 0 0 1 0"/>
<feBlend mode="normal" in2="shape" result="effect1_innerShadow_2115_149"/>
</filter>
</defs>
</svg>
